<?xml version="1.0" encoding="UTF-8"?>
<!DOCTYPE svg PUBLIC "-//W3C//DTD SVG 1.1//EN" "http://www.w3.org/Graphics/SVG/1.1/DTD/svg11.dtd">
<svg xmlns="http://www.w3.org/2000/svg" version="1.1" width="286px" height="176px" style="shape-rendering:geometricPrecision; text-rendering:geometricPrecision; image-rendering:optimizeQuality; fill-rule:evenodd; clip-rule:evenodd" xmlns:xlink="http://www.w3.org/1999/xlink">
<g><path style="opacity:1" fill="#232f3e" d="M -0.5,-0.5 C 94.8333,-0.5 190.167,-0.5 285.5,-0.5C 285.5,58.1667 285.5,116.833 285.5,175.5C 190.167,175.5 94.8333,175.5 -0.5,175.5C -0.5,116.833 -0.5,58.1667 -0.5,-0.5 Z"/></g>
<g><path style="opacity:1" fill="#f4f5f5" d="M 43.5,59.5 C 47.5138,59.3345 51.5138,59.5012 55.5,60C 59.3333,61.1667 61.8333,63.6667 63,67.5C 63.3333,74.5 63.6667,81.5 64,88.5C 64.9435,89.263 65.4435,90.263 65.5,91.5C 63.8606,93.8061 61.8606,95.8061 59.5,97.5C 57.8333,96.1667 56.1667,94.8333 54.5,93.5C 48.5594,98.3781 42.3927,98.7114 36,94.5C 31.6875,86.8555 33.1875,80.6888 40.5,76C 44.7543,74.7355 49.0876,73.9022 53.5,73.5C 54.5168,69.2112 52.8502,66.8779 48.5,66.5C 46.2586,67.0708 44.5919,68.4042 43.5,70.5C 40.6281,71.7825 37.7947,71.7825 35,70.5C 35.7146,65.2755 38.548,61.6089 43.5,59.5 Z"/></g>
<g><path style="opacity:1" fill="#f7f8f8" d="M 131.5,59.5 C 138.864,58.2081 145.03,60.2081 150,65.5C 150.333,72.5 150.667,79.5 151,86.5C 151.36,88.4211 152.194,90.0878 153.5,91.5C 151.798,94.0367 149.631,96.0367 147,97.5C 145.291,96.4304 143.791,95.0971 142.5,93.5C 135.865,98.6551 129.365,98.6551 123,93.5C 120.045,79.6071 125.879,73.2737 140.5,74.5C 141.689,67.2778 139.022,65.1111 132.5,68C 131.663,69.0113 131.33,70.1779 131.5,71.5C 128.5,71.5 125.5,71.5 122.5,71.5C 123.241,65.7648 126.241,61.7648 131.5,59.5 Z"/></g>
<g><path style="opacity:1" fill="#f9f9f9" d="M 84.5,59.5 C 90.2039,58.4361 94.3706,60.4361 97,65.5C 102.508,57.9079 108.508,57.5745 115,64.5C 115.5,75.495 115.667,86.495 115.5,97.5C 112.5,97.5 109.5,97.5 106.5,97.5C 106.666,88.4938 106.5,79.4938 106,70.5C 103.034,67.7348 100.367,68.0682 98,71.5C 97.5002,80.1603 97.3336,88.8269 97.5,97.5C 94.5,97.5 91.5,97.5 88.5,97.5C 88.6664,88.4938 88.4998,79.4938 88,70.5C 85.0337,67.7348 82.367,68.0682 80,71.5C 79.5002,80.1603 79.3336,88.8269 79.5,97.5C 76.5525,97.7771 73.7191,97.4438 71,96.5C 70.5001,84.5046 70.3335,72.5046 70.5,60.5C 73.5,60.5 76.5,60.5 79.5,60.5C 79.3433,61.8734 79.51,63.2068 80,64.5C 81.7073,62.9625 83.2073,61.2959 84.5,59.5 Z"/></g>
<g><path style="opacity:1" fill="#f8f9f9" d="M 158.5,60.5 C 166.833,60.5 175.167,60.5 183.5,60.5C 183.752,63.3198 183.252,65.9865 182,68.5C 177.973,73.6938 174.14,79.0272 170.5,84.5C 174.593,85.1769 178.593,86.1769 182.5,87.5C 183.833,90.5 183.833,93.5 182.5,96.5C 174.458,92.6045 166.458,92.6045 158.5,96.5C 157.343,93.2156 157.176,89.8823 158,86.5C 162.378,80.2447 166.878,74.078 171.5,68C 167.179,67.501 162.846,67.3343 158.5,67.5C 158.5,65.1667 158.5,62.8333 158.5,60.5 Z"/></g>
<g><path style="opacity:1" fill="#f4f5f5" d="M 197.5,59.5 C 207.773,58.2173 214.273,62.5507 217,72.5C 218.248,79.2146 217.248,85.5479 214,91.5C 208.658,97.6316 202.158,99.1316 194.5,96C 186.648,87.7406 184.815,78.2406 189,67.5C 191.157,64.0241 193.99,61.3575 197.5,59.5 Z"/></g>
<g><path style="opacity:1" fill="#f9f9f9" d="M 236.5,59.5 C 242.204,58.4361 246.371,60.4361 249,65.5C 249.5,76.1615 249.667,86.8281 249.5,97.5C 246.5,97.5 243.5,97.5 240.5,97.5C 240.666,88.4938 240.5,79.4938 240,70.5C 236.512,67.5385 233.845,68.2052 232,72.5C 231.5,80.8267 231.334,89.16 231.5,97.5C 228.5,97.5 225.5,97.5 222.5,97.5C 222.5,85.1667 222.5,72.8333 222.5,60.5C 225.5,60.5 228.5,60.5 231.5,60.5C 231.343,61.8734 231.51,63.2068 232,64.5C 233.193,62.5029 234.693,60.8362 236.5,59.5 Z"/></g>
<g><path style="opacity:1" fill="#222e3e" d="M 200.5,66.5 C 203.952,66.4483 206.119,68.115 207,71.5C 207.984,77.7046 207.317,83.7046 205,89.5C 201.592,91.2233 199.259,90.2233 198,86.5C 197.333,80.8333 197.333,75.1667 198,69.5C 199.045,68.6266 199.878,67.6266 200.5,66.5 Z"/></g>
<g><path style="opacity:1" fill="#243040" d="M 47.5,79.5 C 49.5,79.5 51.5,79.5 53.5,79.5C 53.6488,82.6074 53.1488,85.6074 52,88.5C 47.6257,91.7934 44.7923,90.7934 43.5,85.5C 44.4316,83.2345 45.7649,81.2345 47.5,79.5 Z"/></g>
<g><path style="opacity:1" fill="#243040" d="M 135.5,79.5 C 137.5,79.5 139.5,79.5 141.5,79.5C 142.105,84.7486 140.105,88.4153 135.5,90.5C 131.222,88.6605 130.389,85.6605 133,81.5C 133.995,80.9341 134.828,80.2674 135.5,79.5 Z"/></g>
<g><path style="opacity:1" fill="#ef910b" d="M 163.5,98.5 C 168.547,98.3375 173.547,98.6708 178.5,99.5C 179.148,107.569 176.481,114.236 170.5,119.5C 170.167,119.167 169.833,118.833 169.5,118.5C 171.617,113.999 172.784,109.332 173,104.5C 167.884,103.856 162.718,103.189 157.5,102.5C 159.565,101.143 161.565,99.81 163.5,98.5 Z"/></g>
<g><path style="opacity:1" fill="#f39308" d="M 64.5,100.5 C 97.5268,118.181 131.527,120.181 166.5,106.5C 167.72,106.887 168.387,107.72 168.5,109C 161.644,115.095 153.644,119.095 144.5,121C 115.089,128.658 88.7556,122.825 65.5,103.5C 64.6143,102.675 64.281,101.675 64.5,100.5 Z"/></g>
</svg>
