<svg width="265" height="48" viewBox="0 0 265 48" fill="none" xmlns="http://www.w3.org/2000/svg">
<path d="M87 10.2985C87.928 10.3891 88.851 10.3182 89.775 10.3378C90.183 10.3464 90.592 10.3558 90.999 10.3378C91.286 10.3216 91.392 10.4028 91.38 10.7122C91.356 11.3515 91.373 11.9942 91.373 12.7155C93.365 10.5404 95.819 9.78826 98.601 10.0609C101.409 10.3352 103.657 11.5839 105.083 14.1522C106.734 11.0147 110.512 9.45146 114.263 10.1711C118.266 10.9344 120.843 13.9386 120.988 18.0812C121.132 22.1229 121.018 26.1681 121.038 30.2124C121.038 30.6637 121.23 31.2671 120.953 31.5244C120.714 31.7483 120.125 31.5945 119.688 31.597C118.831 31.597 117.973 31.5833 117.116 31.6064C116.788 31.615 116.694 31.5278 116.694 31.1868C116.707 27.3407 116.701 23.4947 116.702 19.6487C116.702 18.6136 116.567 17.6043 116.141 16.6573C115.259 14.7035 113.391 13.6822 111.054 13.8565C108.217 14.0685 106.414 15.9317 106.232 18.8504C106.202 19.3187 106.189 19.7905 106.189 20.258C106.186 23.9047 106.186 27.5513 106.189 31.1979C106.189 31.5047 106.133 31.6141 105.801 31.6081C104.62 31.5859 103.439 31.5859 102.258 31.6081C101.929 31.6141 101.868 31.5081 101.869 31.1996C101.879 27.439 101.881 23.6784 101.874 19.9179C101.874 19.1487 101.827 18.3795 101.638 17.6325C101.056 15.3163 99.349 13.942 96.943 13.8505C94.569 13.7591 92.786 14.7573 91.925 16.6923C91.503 17.6419 91.372 18.653 91.372 19.688C91.372 23.5049 91.367 27.3211 91.383 31.1406C91.383 31.5201 91.291 31.6141 90.921 31.6064C89.614 31.5774 88.306 31.5868 87 31.5825V10.2985Z" fill="#1B2B4A"/>
<path d="M186.629 44.0603C186.629 40.9732 186.648 37.8852 186.629 34.7981C186.629 34.3802 186.734 34.2417 187.136 34.2964C187.374 34.3138 187.613 34.3158 187.851 34.3024C188.215 34.3024 188.215 34.3024 188.243 34.746C189.015 34.2692 189.936 34.1042 190.823 34.2836C191.261 34.3552 191.679 34.5233 192.046 34.7762C192.413 35.029 192.722 35.3603 192.949 35.7468C193.786 37.1143 193.606 39.1655 192.573 40.3313C191.689 41.327 189.873 41.7842 188.228 40.8185V44.0603H186.629ZM191.872 37.7921C191.877 36.5451 191.197 35.7759 190.09 35.7699C188.993 35.7639 188.25 36.557 188.234 37.7476C188.218 38.9561 188.972 39.7988 190.065 39.7988C191.175 39.7963 191.866 39.0279 191.872 37.7921Z" fill="#1B2B4A"/>
<path d="M265.001 31.5801C264.976 31.5674 264.956 31.5458 264.945 31.5194C264.94 31.4211 264.928 31.3229 264.928 31.2237C264.928 24.596 264.928 17.9685 264.928 11.3414C264.928 11.2422 264.94 11.1431 264.946 11.0448C264.958 11.0187 264.977 10.9969 265.001 10.9824V31.5801Z" fill="#881B29"/>
<path d="M203.178 28.5895V35.3773C203.178 37.2004 203.172 39.0234 203.184 40.8473C203.184 41.1336 203.126 41.2387 202.819 41.2336C201.652 41.2156 200.485 41.2114 199.319 41.2336C198.981 41.2404 198.938 41.1174 198.94 40.8199C198.949 37.53 198.951 34.2401 198.946 30.9501C198.946 24.4124 198.942 17.875 198.934 11.3379C198.934 10.8764 199.065 10.7892 199.486 10.8003C200.609 10.8311 201.735 10.8199 202.86 10.8046C203.123 10.8003 203.19 10.8746 203.185 11.1362C203.168 11.9746 203.179 12.813 203.179 13.6404C203.259 13.6968 203.294 13.6455 203.33 13.6053C205.841 10.8003 208.975 9.90117 212.542 10.7507C216.069 11.5909 218.346 13.9472 219.309 17.4343C220.378 21.3111 219.984 25.0537 217.431 28.2998C215.348 30.9493 212.531 31.998 209.221 31.6971C206.888 31.4852 204.973 30.4194 203.393 28.6972C203.351 28.639 203.318 28.5755 203.294 28.5083L203.178 28.5895ZM215.514 20.8547C215.499 20.2585 215.431 19.6649 215.31 19.0812C214.755 16.5531 212.816 14.6891 210.281 14.2566C209.08 14.052 207.845 14.2299 206.748 14.7656C205.651 15.3014 204.745 16.1687 204.155 17.248C202.741 19.8453 202.755 22.5324 204.239 25.0896C206.192 28.4562 210.664 29.0399 213.448 26.346C214.932 24.911 215.51 23.0769 215.514 20.8547Z" fill="#1B2B4A"/>
<path d="M226.869 29.046V31.5648C226.869 34.8254 226.862 38.0859 226.879 41.3465C226.879 41.7234 226.765 41.7807 226.432 41.7739C225.323 41.7525 224.212 41.7499 223.102 41.7739C222.741 41.7816 222.64 41.7012 222.641 41.3166C222.655 35.6638 222.659 30.011 222.651 24.3581C222.651 20.1702 222.651 15.9823 222.643 11.7995C222.643 11.4448 222.727 11.3465 223.078 11.3551C224.202 11.3799 225.327 11.3816 226.453 11.3551C226.82 11.3465 226.889 11.4671 226.879 11.8089C226.854 12.6192 226.871 13.4328 226.871 14.3208C227.069 14.1046 227.219 13.9319 227.377 13.7687C231.458 9.5671 238.442 10.2594 241.724 15.1533C244.281 18.9643 244.225 25.6196 240.712 29.3648C238.729 31.4819 236.272 32.4246 233.404 32.2989C230.794 32.1853 228.678 31.0349 226.869 29.046ZM239.208 21.2292C239.22 20.8215 239.123 20.0762 238.927 19.3489C238.252 16.8173 236.301 15.1353 233.632 14.7772C231.369 14.4738 228.96 15.7464 227.772 17.9224C226.694 19.8984 226.616 22.0001 227.226 24.124C228.467 28.4512 233.62 30.0349 236.928 27.1085C238.566 25.6538 239.198 23.7419 239.208 21.2292Z" fill="#1B2B4A"/>
<path d="M191.86 28.3737C190.804 29.6916 189.565 30.6027 188.09 31.1446C184.373 32.512 180.09 31.5463 177.468 28.0934C174.564 24.2678 174.419 18.239 177.185 14.3775C179.199 11.5656 181.983 10.3229 185.386 10.4571C187.985 10.5597 190.11 11.6588 191.86 13.7049C191.86 12.8143 191.875 11.9955 191.851 11.1819C191.843 10.8665 191.919 10.7768 192.24 10.7828C193.407 10.8041 194.573 10.799 195.74 10.7828C196.016 10.7828 196.129 10.8272 196.129 11.1469C196.12 17.77 196.12 24.3929 196.129 31.0155C196.129 31.3155 196.045 31.3975 195.751 31.3941C194.57 31.377 193.389 31.377 192.208 31.3941C191.939 31.3941 191.846 31.3334 191.853 31.0446C191.872 30.1976 191.86 29.3429 191.86 28.3737ZM191.865 21.1457C191.851 19.7269 191.604 18.4595 190.944 17.2911C188.751 13.4006 183.377 13.0434 180.855 16.6663C179.231 18.9979 179.145 21.5807 180.171 24.149C181.708 28.0002 186.321 29.2361 189.433 26.6832C191.185 25.2482 191.844 23.285 191.865 21.1474V21.1457Z" fill="#1B2B4A"/>
<path d="M140.062 13.7059C140.062 12.8033 140.08 11.9905 140.052 11.1803C140.041 10.8384 140.154 10.7872 140.454 10.7923C141.635 10.8094 142.816 10.8094 143.997 10.7923C144.286 10.788 144.377 10.8572 144.372 11.1632C144.353 12.3025 144.364 13.4418 144.364 14.5819C144.364 20.0376 144.367 25.493 144.374 30.9481C144.374 31.3404 144.265 31.4139 143.908 31.4062C142.741 31.3823 141.573 31.3891 140.407 31.4062C140.132 31.4062 140.049 31.3353 140.055 31.0524C140.073 30.1977 140.062 29.3473 140.062 28.4097C139.651 28.8678 139.297 29.2781 138.881 29.6242C137.858 30.4773 136.666 31.0977 135.386 31.4436C134.106 31.7895 132.767 31.8528 131.461 31.6291C130.155 31.4054 128.911 30.9001 127.814 30.1472C126.717 29.3943 125.793 28.4115 125.104 27.2653C122.567 23.0774 122.886 17.2835 125.909 13.7144C127.916 11.3435 130.526 10.3316 133.585 10.4624C136.071 10.5684 138.141 11.5632 139.806 13.4298C139.873 13.499 139.938 13.5691 140.062 13.7059ZM140.067 21.0903C140.067 19.7877 139.839 18.5399 139.203 17.3955C138.083 15.3776 136.373 14.2409 134.088 14.1785C131.804 14.1161 129.986 15.1101 128.766 17.1032C127.257 19.569 127.454 23.2569 129.194 25.6055C131.226 28.3482 135.128 28.8328 137.715 26.6252C139.397 25.1893 140.05 23.2697 140.067 21.0903Z" fill="#881B29"/>
<path d="M264.946 11.0461C264.94 11.1444 264.928 11.2436 264.928 11.3427C264.928 17.9699 264.928 24.5973 264.928 31.225C264.928 31.3242 264.94 31.4225 264.945 31.5207C264.861 31.6319 264.741 31.5934 264.634 31.5942C263.44 31.5942 262.245 31.5857 261.051 31.6028C260.762 31.6071 260.7 31.5071 260.707 31.2378C260.724 30.6028 260.712 29.9669 260.712 29.2413C259.721 30.3909 258.566 31.1507 257.203 31.5207C254.151 32.3498 251.312 31.9284 248.882 29.7789C247.403 28.4713 246.701 26.714 246.441 24.7645C246.366 24.1288 246.333 23.4886 246.342 22.8483C246.342 19.0308 246.34 15.215 246.336 11.4008C246.336 11.0837 246.392 10.9658 246.74 10.9735C247.877 10.9991 249.015 10.9991 250.154 10.9735C250.491 10.9666 250.543 11.0735 250.542 11.3794C250.532 15.1104 250.53 18.8408 250.536 22.5706C250.536 23.4304 250.631 24.2799 250.932 25.085C251.588 26.8371 252.845 27.8627 254.673 28.1055C256.534 28.3542 258.242 28.0243 259.524 26.4876C260.42 25.4141 260.706 24.1158 260.706 22.7484C260.716 18.9878 260.713 15.2289 260.698 11.4718C260.698 11.0444 260.819 10.9632 261.209 10.9735C262.318 11.0017 263.43 10.9812 264.54 10.9863C264.678 10.9863 264.826 10.935 264.946 11.0461Z" fill="#1B2B4A"/>
<path d="M163.584 16.8224C163.584 13.4328 163.589 10.0423 163.576 6.65176C163.576 6.30986 163.644 6.19196 164.007 6.19956C165.16 6.22526 166.313 6.21926 167.466 6.19956C167.764 6.19446 167.841 6.28506 167.838 6.57996C167.823 8.03286 167.838 9.48586 167.824 10.9388C167.824 11.2542 167.894 11.3482 168.216 11.3439C169.621 11.3243 171.028 11.3439 172.434 11.3277C172.735 11.3277 172.808 11.4132 172.802 11.708C172.783 12.6339 172.783 13.5598 172.802 14.4857C172.808 14.7729 172.717 14.8344 172.45 14.8319C171.03 14.8191 169.61 14.8319 168.191 14.8182C167.887 14.8182 167.824 14.9088 167.825 15.2011C167.835 18.8617 167.83 22.5222 167.835 26.1828C167.837 26.453 167.866 26.7223 167.919 26.9871C168.074 27.7836 168.601 28.2375 169.499 28.3281C170.48 28.4264 171.466 28.3597 172.452 28.364C172.719 28.364 172.813 28.4238 172.807 28.7152C172.787 29.6981 172.798 30.681 172.8 31.6639C172.8 31.8254 172.822 31.9724 172.577 31.9673C171.046 31.9331 169.512 32.0527 167.987 31.8425C165.232 31.4639 163.664 29.7631 163.617 26.9461C163.562 23.5718 163.604 20.1941 163.604 16.8198L163.584 16.8224Z" fill="#1B2B4A"/>
<path d="M136.407 5.1644C132.756 5.3123 128.662 4.8935 124.568 4.4738C123.942 4.4097 123.315 4.3114 122.721 4.0747C122.523 3.99605 122.315 3.92255 122.335 3.64734C122.355 3.37214 122.594 3.37726 122.774 3.34393C124.017 3.11402 125.278 3.00206 126.534 2.873C129.914 2.52772 133.295 2.19468 136.677 1.87389C139.514 1.59954 142.353 1.34143 145.189 1.06451C147.889 0.801271 150.581 0.527771 153.27 0.182481C154.902 -0.027769 156.543 -0.0910087 158.178 0.207271C158.4 0.243491 158.615 0.315341 158.814 0.420081C159.152 0.606401 159.355 0.886741 159.29 1.28844C159.227 1.66962 159.121 2.0226 158.699 2.1867C156.359 3.07642 153.936 3.60033 151.475 3.96699C148.655 4.3858 145.831 4.7687 142.984 4.9524C140.952 5.0832 138.918 5.1524 136.407 5.1644Z" fill="#881B29"/>
<path d="M158.751 24.2104C158.751 26.7214 158.743 28.8427 158.759 30.9623C158.759 31.3264 158.656 31.4102 158.312 31.4033C157.202 31.382 156.091 31.3794 154.982 31.4033C154.619 31.411 154.55 31.2931 154.551 30.9495C154.563 27.2459 154.565 23.5443 154.556 19.8447C154.556 18.8567 154.434 17.8789 154.037 16.9696C153.362 15.4115 152.156 14.544 150.522 14.2414C149.425 14.038 148.79 13.1962 148.909 12.1218C149.023 11.0945 149.849 10.4056 150.945 10.4689C153.764 10.633 156.079 11.715 157.567 14.2628C158.283 15.4858 158.624 16.8268 158.701 18.2387C158.818 20.3575 158.721 22.4788 158.751 24.2104Z" fill="#881B29"/>
<path d="M181.095 37.7816C181.095 39.3491 180.32 40.5892 179.003 41.1148C177.687 41.6405 176.129 41.3157 175.193 40.3208C173.981 39.0328 173.967 36.5645 175.163 35.2783C176.384 33.9672 178.597 33.8356 179.941 35.0039C180.777 35.7338 181.093 36.6927 181.095 37.7816ZM179.499 37.7867C179.499 36.8141 179.078 36.1252 178.326 35.8705C176.985 35.4176 175.83 36.35 175.88 37.8423C175.914 38.8029 176.317 39.4499 177.029 39.691C178.369 40.1431 179.494 39.2747 179.499 37.7867Z" fill="#1B2B4A"/>
<path d="M173.354 38.5899C173.101 40.3497 171.823 41.4103 170.064 41.3582C168.284 41.3052 166.967 40.0899 166.807 38.3617C166.708 37.2805 166.83 36.2515 167.542 35.3866C168.438 34.2994 169.624 34.0576 170.933 34.302C172.114 34.5216 172.887 35.2216 173.256 36.3925C173.37 36.7541 173.276 36.8515 172.928 36.813C172.746 36.7964 172.563 36.7964 172.381 36.813C171.995 36.8421 171.706 36.813 171.479 36.3729C171.207 35.831 170.367 35.6327 169.665 35.8113C168.991 35.9823 168.521 36.5224 168.416 37.2583C168.363 37.6104 168.363 37.9686 168.416 38.3207C168.623 39.66 170.171 40.2864 171.247 39.4668C171.375 39.3702 171.521 39.2591 171.541 39.1155C171.625 38.5104 172.053 38.5728 172.469 38.589C172.763 38.5984 173.057 38.5899 173.354 38.5899Z" fill="#1B2B4A"/>
<path d="M182.004 37.761C182.004 36.7499 182.022 35.738 181.995 34.7278C181.985 34.3585 182.104 34.2534 182.444 34.3004C182.637 34.3252 182.85 34.2585 183.034 34.3124C183.822 34.5491 184.558 34.1415 185.328 34.1526C185.64 34.1586 185.815 34.2107 185.75 34.5662C185.749 34.5805 185.749 34.5947 185.75 34.609C185.75 34.979 185.862 35.4183 185.703 35.6995C185.535 35.9987 185.063 35.7756 184.727 35.8354C184.008 35.9628 183.647 36.3482 183.609 37.1508C183.581 37.749 183.598 38.3473 183.598 38.9456C183.598 39.6293 183.59 40.3131 183.598 40.9968C183.598 41.2002 183.542 41.2712 183.338 41.2618C183.001 41.2434 182.663 41.2434 182.325 41.2618C182.063 41.2789 181.994 41.1866 181.997 40.925C182.012 39.8678 182.004 38.814 182.004 37.761Z" fill="#1B2B4A"/>
<path d="M196.247 40.3205C196.247 41.253 196.247 41.253 195.319 41.253C194.391 41.253 194.391 41.253 194.391 40.3034C194.391 39.3761 194.391 39.3761 195.296 39.3718C196.247 39.3667 196.247 39.3667 196.247 40.3205Z" fill="#1B2B4A"/>
<path fill-rule="evenodd" clip-rule="evenodd" d="M29 41C29 44.866 32.134 48 36 48H37C40.866 48 44 44.866 44 41V19.0002V4.0002C44 4.0001 43.9999 4 43.9998 4H29.0001C29 4 29 4 29 4.0001C29 4.0002 29 4.0002 28.9999 4.0002H15H7C3.134 4.0002 0 7.1342 0 11.0002V19.0002V40.5002C0 44.6423 3.3579 48.0002 7.5 48.0002C11.6421 48.0002 15 44.6423 15 40.5002V26.0002C15 22.1342 18.134 19.0002 22 19.0002C25.866 19.0002 29 22.1342 29 26.0002V41Z" fill="url(#paint0_linear_755_30441)"/>
<path fill-rule="evenodd" clip-rule="evenodd" d="M44 48H36C32.134 48 29 44.866 29 41V33V19V11C29 7.134 32.134 4 36 4H44H51.5C55.6421 4 59 7.3579 59 11.5C59 15.6421 55.6421 19 51.5 19H51C47.134 19 44 22.134 44 26C44 29.866 47.134 33 51 33H67.5C71.6421 33 75 36.3579 75 40.5C75 44.6421 71.6421 48 67.5 48H44Z" fill="url(#paint1_linear_755_30441)"/>
<path d="M67.5 30C71.6421 30 75 26.6421 75 22.5C75 18.3579 71.6421 15 67.5 15C63.3579 15 60 18.3579 60 22.5C60 26.6421 63.3579 30 67.5 30Z" fill="#81172C"/>
<defs>
<linearGradient id="paint0_linear_755_30441" x1="36" y1="4" x2="6.86474e-07" y2="35" gradientUnits="userSpaceOnUse">
<stop stop-color="#0A1C3C"/>
<stop offset="1" stop-color="#112749"/>
</linearGradient>
<linearGradient id="paint1_linear_755_30441" x1="31" y1="6" x2="51" y2="48" gradientUnits="userSpaceOnUse">
<stop stop-color="#12294B"/>
<stop offset="1" stop-color="#07213D"/>
</linearGradient>
</defs>
</svg>
