<?xml version="1.0" encoding="UTF-8"?>
<!DOCTYPE svg PUBLIC "-//W3C//DTD SVG 1.1//EN" "http://www.w3.org/Graphics/SVG/1.1/DTD/svg11.dtd">
<svg xmlns="http://www.w3.org/2000/svg" version="1.1" width="3000px" height="2000px" style="shape-rendering:geometricPrecision; text-rendering:geometricPrecision; image-rendering:optimizeQuality; fill-rule:evenodd; clip-rule:evenodd" xmlns:xlink="http://www.w3.org/1999/xlink">
<g><path style="opacity:1" fill="#02643c" d="M 1809.5,409.5 C 1809.82,411.048 1810.82,411.715 1812.5,411.5C 1815.14,412.82 1817.81,414.153 1820.5,415.5C 1820.82,417.048 1821.82,417.715 1823.5,417.5C 1824.83,418.167 1826.17,418.833 1827.5,419.5C 1827.82,421.048 1828.82,421.715 1830.5,421.5C 1856.89,436.578 1881.89,453.578 1905.5,472.5C 1906.54,474.531 1908.21,475.864 1910.5,476.5C 1921.08,484.08 1931.08,492.413 1940.5,501.5C 1940.5,503.5 1941.5,504.5 1943.5,504.5C 1946.5,506.833 1949.17,509.5 1951.5,512.5C 1953.24,515.243 1955.57,517.243 1958.5,518.5C 1959.5,518.833 1960.17,519.5 1960.5,520.5C 1961.83,523.833 1964.17,526.167 1967.5,527.5C 1968.5,527.833 1969.17,528.5 1969.5,529.5C 1971.77,533.436 1974.77,536.769 1978.5,539.5C 1980.17,540.5 1981.5,541.833 1982.5,543.5C 1984.09,546.764 1986.43,549.431 1989.5,551.5C 1991.17,552.5 1992.5,553.833 1993.5,555.5C 1994.08,557.749 1995.41,559.415 1997.5,560.5C 1998.5,560.833 1999.17,561.5 1999.5,562.5C 2000.08,564.749 2001.41,566.415 2003.5,567.5C 2004.42,570.089 2006.09,572.089 2008.5,573.5C 2009.08,575.749 2010.41,577.415 2012.5,578.5C 2013.08,580.749 2014.41,582.415 2016.5,583.5C 2017.08,585.749 2018.41,587.415 2020.5,588.5C 2022.26,589.262 2023.26,590.596 2023.5,592.5C 2023.74,594.404 2024.74,595.738 2026.5,596.5C 2026.74,598.404 2027.74,599.738 2029.5,600.5C 2031.26,601.262 2032.26,602.596 2032.5,604.5C 2032.74,606.404 2033.74,607.738 2035.5,608.5C 2035.43,610.027 2036.09,611.027 2037.5,611.5C 2037.43,613.027 2038.09,614.027 2039.5,614.5C 2039.74,616.404 2040.74,617.738 2042.5,618.5C 2042.43,620.027 2043.09,621.027 2044.5,621.5C 2044.43,623.027 2045.09,624.027 2046.5,624.5C 2046.43,626.027 2047.09,627.027 2048.5,627.5C 2048.43,629.027 2049.09,630.027 2050.5,630.5C 2050.43,632.027 2051.09,633.027 2052.5,633.5C 2052.43,635.027 2053.09,636.027 2054.5,636.5C 2054.43,638.027 2055.09,639.027 2056.5,639.5C 2057.34,639.842 2057.67,640.508 2057.5,641.5C 2057.43,643.027 2058.09,644.027 2059.5,644.5C 2059.43,646.027 2060.09,647.027 2061.5,647.5C 2062.34,647.842 2062.67,648.508 2062.5,649.5C 2062.43,651.027 2063.09,652.027 2064.5,652.5C 2065.34,652.842 2065.67,653.508 2065.5,654.5C 2065.43,656.027 2066.09,657.027 2067.5,657.5C 2068.34,657.842 2068.67,658.508 2068.5,659.5C 2068.43,661.027 2069.09,662.027 2070.5,662.5C 2071.67,663.514 2072.34,664.847 2072.5,666.5C 2072.43,668.027 2073.09,669.027 2074.5,669.5C 2076.01,671.181 2077.01,673.181 2077.5,675.5C 2077.43,677.027 2078.09,678.027 2079.5,678.5C 2086.01,690.182 2092.01,702.182 2097.5,714.5C 2097.16,716.483 2097.82,717.817 2099.5,718.5C 2100.44,720.05 2101.11,721.716 2101.5,723.5C 2101.12,725.698 2101.79,727.365 2103.5,728.5C 2105.59,731.088 2106.93,734.088 2107.5,737.5C 2107.17,740.491 2108.17,742.824 2110.5,744.5C 2110.12,746.698 2110.79,748.365 2112.5,749.5C 2112.12,751.698 2112.79,753.365 2114.5,754.5C 2114.5,754.833 2114.5,755.167 2114.5,755.5C 2114.17,758.491 2115.17,760.824 2117.5,762.5C 2117.35,765.716 2118.35,768.383 2120.5,770.5C 2120.5,770.833 2120.5,771.167 2120.5,771.5C 2120.12,773.698 2120.79,775.365 2122.5,776.5C 2122.5,776.833 2122.5,777.167 2122.5,777.5C 2122.69,780.855 2123.69,783.855 2125.5,786.5C 2127.59,795.437 2130.26,804.103 2133.5,812.5C 2133.74,816.479 2134.74,820.146 2136.5,823.5C 2139.26,831.544 2141.26,839.877 2142.5,848.5C 2142.42,851.781 2143.09,854.781 2144.5,857.5C 2148.44,873.163 2151.11,889.163 2152.5,905.5C 2152.25,911.084 2152.92,916.417 2154.5,921.5C 2156.52,935.376 2157.52,949.376 2157.5,963.5C 2157.5,966.833 2157.5,970.167 2157.5,973.5C 2127.64,976.786 2099.31,971.62 2072.5,958C 2056.32,949.411 2039.99,941.078 2023.5,933C 1994.85,919.87 1964.85,915.37 1933.5,919.5C 1942.35,937.197 1950.68,955.197 1958.5,973.5C 1978.41,973.238 1997.75,976.405 2016.5,983C 2037.09,991.961 2057.09,1001.96 2076.5,1013C 2101.81,1025.5 2128.48,1030.33 2156.5,1027.5C 2156.5,1030.83 2156.5,1034.17 2156.5,1037.5C 2156.82,1042.03 2156.48,1046.37 2155.5,1050.5C 2154.52,1053.62 2154.19,1056.96 2154.5,1060.5C 2154.47,1064.03 2154.8,1067.2 2155.5,1070C 2153.89,1071.05 2153.23,1072.55 2153.5,1074.5C 2132.75,1077.75 2112.75,1075.25 2093.5,1067C 2077.85,1059.17 2062.51,1050.84 2047.5,1042C 2028.29,1030.87 2007.62,1024.71 1985.5,1023.5C 1982.38,1022.52 1979.04,1022.19 1975.5,1022.5C 1975.26,1023.79 1975.6,1024.79 1976.5,1025.5C 1980.86,1040.95 1984.19,1056.61 1986.5,1072.5C 2001.56,1072.45 2015.89,1075.62 2029.5,1082C 2046.49,1090.83 2063.16,1100.16 2079.5,1110C 2100.16,1121.3 2122.16,1125.47 2145.5,1122.5C 2146.37,1124.03 2146.04,1125.53 2144.5,1127C 2144.83,1127.33 2145.17,1127.67 2145.5,1128C 2143.85,1132.06 2142.52,1136.23 2141.5,1140.5C 2140.6,1141.21 2140.26,1142.21 2140.5,1143.5C 2140.41,1144.5 2140.75,1145.33 2141.5,1146C 2140.64,1146.69 2139.98,1147.52 2139.5,1148.5C 2140.79,1149.53 2140.79,1150.53 2139.5,1151.5C 2139.34,1155.95 2138.01,1160.29 2135.5,1164.5C 2135.71,1165.09 2136.04,1165.59 2136.5,1166C 2134.49,1168.83 2133.16,1171.99 2132.5,1175.5C 2115.31,1177.37 2099.31,1173.87 2084.5,1165C 2068.28,1153.8 2051.28,1143.8 2033.5,1135C 2020.6,1130.12 2007.27,1127.62 1993.5,1127.5C 1992.5,1141.99 1992.17,1156.66 1992.5,1171.5C 1995.17,1171.5 1997.83,1171.5 2000.5,1171.5C 2016.51,1172.78 2031.18,1177.95 2044.5,1187C 2057.49,1197.17 2071.49,1205.84 2086.5,1213C 2096.58,1217.05 2106.91,1219.21 2117.5,1219.5C 2117.74,1220.79 2117.4,1221.79 2116.5,1222.5C 2115.07,1223.78 2114.4,1225.45 2114.5,1227.5C 2112.04,1231.44 2110.37,1235.78 2109.5,1240.5C 2111.03,1241.92 2110.7,1242.59 2108.5,1242.5C 2107.07,1243.78 2106.4,1245.45 2106.5,1247.5C 2105.07,1248.78 2104.4,1250.45 2104.5,1252.5C 2104.34,1254.15 2103.67,1255.49 2102.5,1256.5C 2100.93,1258.51 2099.93,1260.84 2099.5,1263.5C 2097.71,1265.43 2096.71,1267.76 2096.5,1270.5C 2088.74,1269.89 2081.41,1267.73 2074.5,1264C 2064.55,1257.05 2054.88,1249.72 2045.5,1242C 2028.69,1229.23 2009.69,1223.4 1988.5,1224.5C 1986.98,1236.92 1984.98,1249.25 1982.5,1261.5C 2001.13,1260.32 2017.46,1265.82 2031.5,1278C 2042.17,1289.35 2054.51,1298.35 2068.5,1305C 2071.68,1305.66 2074.68,1306.49 2077.5,1307.5C 2076.33,1308.51 2075.66,1309.85 2075.5,1311.5C 2071.66,1319.94 2067.33,1327.6 2062.5,1334.5C 2060.89,1335.01 2060.56,1335.67 2061.5,1336.5C 2057.5,1342.51 2053.5,1348.51 2049.5,1354.5C 2045.56,1352.86 2041.89,1350.69 2038.5,1348C 2027.24,1337.05 2015.24,1327.05 2002.5,1318C 1992.51,1312.39 1981.85,1308.89 1970.5,1307.5C 1973.76,1294.95 1977.1,1282.45 1980.5,1270C 1938.94,1267.96 1902.78,1253.13 1872,1225.5C 1872.87,1211.7 1870.87,1198.36 1866,1185.5C 1859.59,1171.68 1851.93,1158.68 1843,1146.5C 1829.33,1128.83 1815.67,1111.17 1802,1093.5C 1784.94,1070.85 1780.61,1045.85 1789,1018.5C 1794.99,997.22 1800.65,975.887 1806,954.5C 1818.7,880.439 1798.54,816.939 1745.5,764C 1740.32,760.24 1735.32,756.24 1730.5,752C 1729.83,751.333 1729.17,751.333 1728.5,752C 1751.16,779.483 1768,810.317 1779,844.5C 1788.16,877.654 1788.83,910.987 1781,944.5C 1772.73,970.912 1765.4,997.579 1759,1024.5C 1757.56,1037.47 1757.23,1050.47 1758,1063.5C 1761.13,1077.1 1766.47,1089.77 1774,1101.5C 1786.95,1119.45 1800.28,1137.12 1814,1154.5C 1827.32,1171.47 1836.65,1190.47 1842,1211.5C 1843.18,1227.24 1841.18,1242.58 1836,1257.5C 1829.12,1276.58 1820.62,1294.92 1810.5,1312.5C 1835.13,1338 1864.46,1356.16 1898.5,1367C 1912.61,1371.58 1926.94,1372.58 1941.5,1370C 1944.1,1369.12 1946.27,1367.62 1948,1365.5C 1952.06,1357.33 1955.72,1349 1959,1340.5C 1965.27,1339.75 1971.43,1340.58 1977.5,1343C 1983.16,1345.49 1988.49,1348.49 1993.5,1352C 2003.8,1361.3 2013.8,1370.97 2023.5,1381C 2025.4,1382.42 2027.4,1383.59 2029.5,1384.5C 2018.95,1399.32 2007.95,1413.15 1996.5,1426C 1995.91,1426.46 1995.24,1426.63 1994.5,1426.5C 1982.81,1407.31 1966.81,1392.81 1946.5,1383C 1943.94,1381.88 1941.44,1381.71 1939,1382.5C 1934.9,1390.92 1930.4,1399.09 1925.5,1407C 1933.73,1409.45 1941.06,1413.45 1947.5,1419C 1956.78,1428.78 1965.78,1438.61 1974.5,1448.5C 1974.63,1449.24 1974.46,1449.91 1974,1450.5C 1961.24,1463.52 1948.41,1475.52 1935.5,1486.5C 1925.65,1471.48 1913.49,1458.48 1899,1447.5C 1893.38,1454.58 1887.88,1461.74 1882.5,1469C 1894.84,1479.23 1905.17,1491.07 1913.5,1504.5C 1912.05,1507.12 1910.05,1509.29 1907.5,1511C 1894.83,1520.34 1882.16,1529.67 1869.5,1539C 1867.37,1539.66 1865.37,1540.49 1863.5,1541.5C 1863,1528.81 1859.5,1516.81 1853,1505.5C 1847.58,1496.33 1841.92,1487.33 1836,1478.5C 1824.95,1463.78 1814.28,1448.78 1804,1433.5C 1792.51,1415.86 1786.34,1396.53 1785.5,1375.5C 1785.85,1367.29 1787.01,1359.29 1789,1351.5C 1769.98,1380 1767.31,1410 1781,1441.5C 1784.33,1448.17 1787.67,1454.83 1791,1461.5C 1803.17,1481.17 1814.84,1501.17 1826,1521.5C 1831.37,1532.96 1834.87,1544.96 1836.5,1557.5C 1835.92,1559.26 1834.75,1560.59 1833,1561.5C 1821.42,1567.71 1809.92,1574.04 1798.5,1580.5C 1797.89,1580.38 1797.56,1580.04 1797.5,1579.5C 1797.39,1566.06 1794.89,1553.06 1790,1540.5C 1786.67,1532.5 1783.33,1524.5 1780,1516.5C 1767.14,1492.11 1754.81,1467.45 1743,1442.5C 1733.5,1423 1730.83,1402.67 1735,1381.5C 1740.12,1365.6 1747.12,1350.6 1756,1336.5C 1770.26,1314.99 1783.26,1292.65 1795,1269.5C 1810.87,1237.41 1810.21,1205.75 1793,1174.5C 1789.25,1168 1785.25,1161.66 1781,1155.5C 1766.42,1136.68 1752.09,1117.68 1738,1098.5C 1719.78,1069.57 1716.45,1038.9 1728,1006.5C 1734,989.167 1740,971.833 1746,954.5C 1771.96,870.172 1753.13,797.672 1689.5,737C 1683.59,732.462 1677.43,728.295 1671,724.5C 1670.33,725.167 1670.33,725.833 1671,726.5C 1696.75,754.98 1714.41,787.98 1724,825.5C 1731.09,859.853 1729.75,893.853 1720,927.5C 1713.59,947.062 1706.59,966.396 1699,985.5C 1689.19,1010.97 1685.52,1037.31 1688,1064.5C 1691.32,1080.79 1697.65,1095.79 1707,1109.5C 1719.85,1127.19 1733.18,1144.53 1747,1161.5C 1756.36,1173.88 1763.36,1187.55 1768,1202.5C 1772.19,1224.81 1769.19,1246.14 1759,1266.5C 1745,1291.83 1730,1316.5 1714,1340.5C 1703.66,1357.2 1696.66,1375.2 1693,1394.5C 1691.99,1407.74 1693.32,1420.74 1697,1433.5C 1699.44,1441.72 1702.44,1449.72 1706,1457.5C 1716.49,1478.48 1727.49,1499.15 1739,1519.5C 1752.03,1543.4 1759.86,1568.73 1762.5,1595.5C 1762.63,1596.38 1762.3,1597.04 1761.5,1597.5C 1747.01,1604.55 1732.01,1610.22 1716.5,1614.5C 1718.37,1597.45 1716.54,1580.78 1711,1564.5C 1706.5,1551.16 1701.16,1538.16 1695,1525.5C 1683.06,1502.62 1671.4,1479.62 1660,1456.5C 1653.09,1441.38 1649.26,1425.55 1648.5,1409C 1648.99,1394.91 1652.15,1381.41 1658,1368.5C 1663.08,1358.67 1668.41,1349.01 1674,1339.5C 1686.83,1320.51 1699.17,1301.17 1711,1281.5C 1719.45,1266.14 1725.12,1249.81 1728,1232.5C 1729.71,1215.43 1727.04,1199.1 1720,1183.5C 1715.75,1174.67 1710.75,1166.34 1705,1158.5C 1690.95,1140.78 1677.28,1122.78 1664,1104.5C 1646.47,1075.01 1642.47,1043.67 1652,1010.5C 1660.61,984.947 1670.61,959.947 1682,935.5C 1711.02,860.626 1699.35,792.959 1647,732.5C 1637.91,723.406 1628.25,715.072 1618,707.5C 1615.28,708.208 1614.28,709.875 1615,712.5C 1663.03,771.305 1675.36,836.972 1652,909.5C 1641.61,934.616 1630.94,959.616 1620,984.5C 1609.08,1010.1 1604.75,1036.77 1607,1064.5C 1610.39,1086.61 1618.72,1106.61 1632,1124.5C 1643.33,1139.17 1654.67,1153.83 1666,1168.5C 1686.59,1199.41 1688.92,1231.74 1673,1265.5C 1658.92,1291.56 1643.25,1316.56 1626,1340.5C 1615.89,1356.38 1608.23,1373.38 1603,1391.5C 1598.76,1414.49 1601.09,1436.82 1610,1458.5C 1621.24,1484.98 1633.57,1510.98 1647,1536.5C 1656.15,1555.27 1662.48,1574.94 1666,1595.5C 1666.69,1606.85 1666.52,1618.19 1665.5,1629.5C 1665.39,1630.12 1665.06,1630.62 1664.5,1631C 1655.08,1632.92 1646.25,1635.42 1638,1638.5C 1634.22,1637.85 1630.55,1638.52 1627,1640.5C 1623.67,1640.39 1620.5,1640.39 1617.5,1640.5C 1621.09,1616.23 1619.59,1592.23 1613,1568.5C 1608.79,1554.54 1603.79,1540.87 1598,1527.5C 1585.85,1503.53 1574.51,1479.19 1564,1454.5C 1554.62,1432.24 1553.28,1409.57 1560,1386.5C 1563.51,1376.48 1567.84,1366.81 1573,1357.5C 1586.84,1335.16 1601.17,1313.16 1616,1291.5C 1627.49,1274.36 1635.49,1255.7 1640,1235.5C 1643.83,1213.65 1639.83,1193.31 1628,1174.5C 1618.43,1160.27 1608.1,1146.6 1597,1133.5C 1582.48,1114.13 1573.15,1092.46 1569,1068.5C 1565.66,1064.33 1561.33,1062.33 1556,1062.5C 1545.95,1064.14 1536.12,1066.64 1526.5,1070C 1511.92,1072.38 1497.25,1073.05 1482.5,1072C 1470.73,1069.41 1459.06,1066.41 1447.5,1063C 1438.8,1061.27 1432.63,1064.44 1429,1072.5C 1426.94,1087.68 1422.27,1102.02 1415,1115.5C 1401.72,1134.45 1388.05,1153.11 1374,1171.5C 1357.24,1197.63 1354.24,1225.3 1365,1254.5C 1368.87,1264.56 1373.53,1274.23 1379,1283.5C 1395.06,1307.23 1410.73,1331.23 1426,1355.5C 1432.1,1366.36 1437.1,1377.7 1441,1389.5C 1444.85,1402.99 1445.52,1416.66 1443,1430.5C 1440.94,1439.68 1438.27,1448.68 1435,1457.5C 1424.55,1481.08 1413.55,1504.41 1402,1527.5C 1391.11,1550.71 1384.11,1575.04 1381,1600.5C 1380.33,1613.88 1380.83,1627.22 1382.5,1640.5C 1375.46,1640.13 1368.29,1638.79 1361,1636.5C 1360.67,1636.83 1360.33,1637.17 1360,1637.5C 1351.33,1635.05 1342.83,1632.38 1334.5,1629.5C 1332.14,1610.51 1333.64,1591.85 1339,1573.5C 1343.5,1559.5 1348.83,1545.83 1355,1532.5C 1369.31,1505.89 1381.97,1478.55 1393,1450.5C 1402.36,1423.45 1401.36,1396.78 1390,1370.5C 1376.01,1343.16 1360.01,1317.16 1342,1292.5C 1331.36,1276.88 1323.69,1259.88 1319,1241.5C 1314.43,1222.59 1316.1,1204.26 1324,1186.5C 1334.79,1166.59 1347.79,1148.25 1363,1131.5C 1396.73,1088.08 1403.06,1040.75 1382,989.5C 1367.83,958.317 1354.83,926.65 1343,894.5C 1326.9,827.248 1340.57,766.914 1384,713.5C 1384.49,711.866 1384.66,710.199 1384.5,708.5C 1382.8,708.34 1381.13,708.506 1379.5,709C 1316.12,759.965 1292.28,825.465 1308,905.5C 1315.56,929.857 1324.9,953.524 1336,976.5C 1344.38,994.653 1349.72,1013.65 1352,1033.5C 1355.17,1057.02 1350.83,1079.02 1339,1099.5C 1325.49,1120.01 1310.82,1139.68 1295,1158.5C 1283.48,1173.7 1275.82,1190.7 1272,1209.5C 1270.36,1233.62 1275.36,1256.28 1287,1277.5C 1299.92,1299.67 1313.58,1321.34 1328,1342.5C 1337.77,1357.72 1345.11,1374.05 1350,1391.5C 1353.34,1410.42 1351.34,1428.75 1344,1446.5C 1341.67,1452.17 1339.33,1457.83 1337,1463.5C 1326,1484.83 1315,1506.17 1304,1527.5C 1293.87,1547.08 1287.21,1567.74 1284,1589.5C 1283.5,1597.83 1283.33,1606.16 1283.5,1614.5C 1282.85,1614.8 1282.18,1615.14 1281.5,1615.5C 1266.94,1609.31 1252.27,1603.31 1237.5,1597.5C 1238.37,1580.66 1241.87,1564.33 1248,1548.5C 1254.45,1533.59 1261.45,1518.92 1269,1504.5C 1282.74,1482.02 1294.07,1458.35 1303,1433.5C 1309.55,1411.51 1308.55,1389.85 1300,1368.5C 1287.95,1342.72 1273.62,1318.38 1257,1295.5C 1246.86,1279.89 1238.86,1263.22 1233,1245.5C 1226.54,1221.91 1229.54,1199.58 1242,1178.5C 1245.67,1172.83 1249.33,1167.17 1253,1161.5C 1266.33,1144.17 1279.67,1126.83 1293,1109.5C 1312.23,1081.44 1317.9,1050.77 1310,1017.5C 1308.65,1010.76 1306.98,1004.09 1305,997.5C 1295.1,971.036 1285.77,944.37 1277,917.5C 1264.01,860.456 1273.34,807.456 1305,758.5C 1313.34,746.761 1321.5,735.428 1329.5,724.5C 1307.9,737.932 1290.07,755.265 1276,776.5C 1245.92,823.224 1236.26,873.89 1247,928.5C 1256.46,959.876 1266.12,991.209 1276,1022.5C 1282.65,1049.99 1277.98,1075.33 1262,1098.5C 1247.38,1118.78 1232.38,1138.78 1217,1158.5C 1208.58,1170.93 1201.91,1184.27 1197,1198.5C 1191.76,1221.09 1193.76,1243.09 1203,1264.5C 1215.55,1290.61 1229.88,1315.61 1246,1339.5C 1253.08,1351.65 1259.08,1364.32 1264,1377.5C 1269.39,1398.36 1267.72,1418.7 1259,1438.5C 1245.62,1466.26 1231.95,1493.93 1218,1521.5C 1211.94,1534.68 1207.27,1548.35 1204,1562.5C 1202.76,1568.43 1202.26,1574.43 1202.5,1580.5C 1188.51,1574.08 1175.18,1566.75 1162.5,1558.5C 1166.29,1540.31 1172.79,1522.97 1182,1506.5C 1192.92,1489 1203.58,1471.33 1214,1453.5C 1225.09,1433.91 1229.75,1412.91 1228,1390.5C 1224.85,1376.88 1219.52,1364.21 1212,1352.5C 1216.54,1373.26 1214.88,1393.6 1207,1413.5C 1202.84,1422.49 1198.18,1431.15 1193,1439.5C 1178.51,1459.15 1164.51,1479.15 1151,1499.5C 1143.7,1512.73 1138.2,1526.39 1134.5,1540.5C 1130.93,1537.68 1126.59,1535.18 1121.5,1533C 1121.83,1532.67 1122.17,1532.33 1122.5,1532C 1120.51,1530.25 1118.18,1529.25 1115.5,1529C 1116.41,1527.37 1115.75,1526.54 1113.5,1526.5C 1111.19,1526.07 1109.36,1524.4 1108,1521.5C 1107.67,1521.83 1107.33,1522.17 1107,1522.5C 1106.34,1521.02 1105.5,1519.68 1104.5,1518.5C 1103.43,1517.12 1102.09,1515.95 1100.5,1515C 1099.56,1514.31 1098.9,1514.47 1098.5,1515.5C 1097.66,1515.16 1097.33,1514.49 1097.5,1513.5C 1097.17,1512.5 1096.5,1511.83 1095.5,1511.5C 1094.51,1511.67 1093.84,1511.34 1093.5,1510.5C 1092.42,1508.41 1090.75,1507.08 1088.5,1506.5C 1095.01,1491.39 1105.01,1478.89 1118.5,1469C 1112.93,1462.52 1107.59,1455.85 1102.5,1449C 1101.5,1448.33 1100.5,1448.33 1099.5,1449C 1086.03,1458.8 1075.03,1470.8 1066.5,1485C 1064.95,1485.33 1063.62,1484.83 1062.5,1483.5C 1061.89,1483.62 1061.56,1483.96 1061.5,1484.5C 1059.81,1483.14 1058.14,1481.8 1056.5,1480.5C 1057.24,1480.63 1057.91,1480.46 1058.5,1480C 1055.24,1476.23 1051.57,1473.06 1047.5,1470.5C 1045.17,1468.83 1043.17,1466.83 1041.5,1464.5C 1037.2,1459.7 1032.7,1455.04 1028,1450.5C 1027.33,1449.5 1027.33,1448.5 1028,1447.5C 1037.15,1435.02 1047.65,1423.85 1059.5,1414C 1064.26,1411.02 1069.26,1408.52 1074.5,1406.5C 1070.17,1398.5 1065.83,1390.5 1061.5,1382.5C 1060.67,1382.17 1059.83,1381.83 1059,1381.5C 1043.14,1387.11 1029.81,1396.44 1019,1409.5C 1014.33,1414.83 1009.67,1420.17 1005,1425.5C 1004.62,1424.94 1004.12,1424.61 1003.5,1424.5C 1002.83,1423.17 1001.83,1422.17 1000.5,1421.5C 999.92,1419.25 998.587,1417.58 996.5,1416.5C 995.5,1416.17 994.833,1415.5 994.5,1414.5C 994.315,1412.8 993.481,1411.47 992,1410.5C 991.601,1410.73 991.435,1411.06 991.5,1411.5C 990.662,1411.16 990.328,1410.49 990.5,1409.5C 989.974,1407.77 988.974,1406.44 987.5,1405.5C 986.5,1405.17 985.833,1404.5 985.5,1403.5C 985.573,1401.97 984.906,1400.97 983.5,1400.5C 982.167,1400.5 981.5,1399.83 981.5,1398.5C 981.573,1396.97 980.906,1395.97 979.5,1395.5C 979.167,1394.5 978.5,1393.83 977.5,1393.5C 976.512,1392.2 975.512,1390.87 974.5,1389.5C 974.08,1387.91 973.414,1386.41 972.5,1385C 984.846,1372.99 997.512,1361.32 1010.5,1350C 1020.09,1343.19 1030.76,1339.69 1042.5,1339.5C 1045.36,1347.58 1048.53,1355.58 1052,1363.5C 1056.53,1370.67 1063.03,1373.34 1071.5,1371.5C 1095.25,1369.97 1117.58,1363.47 1138.5,1352C 1157.35,1341.82 1174.51,1329.32 1190,1314.5C 1190.67,1313.5 1190.67,1312.5 1190,1311.5C 1180.65,1295.13 1172.65,1278.13 1166,1260.5C 1160.55,1245.27 1158.22,1229.61 1159,1213.5C 1161.15,1200.72 1165.48,1188.72 1172,1177.5C 1177.33,1169.5 1182.67,1161.5 1188,1153.5C 1205.97,1132.24 1221.97,1109.57 1236,1085.5C 1244.36,1067.61 1246.69,1048.94 1243,1029.5C 1240.98,1018.76 1238.65,1008.1 1236,997.5C 1230.26,979.619 1224.93,961.619 1220,943.5C 1208.35,887.421 1217.68,835.087 1248,786.5C 1255.34,775.148 1263.18,764.148 1271.5,753.5C 1271.17,753.167 1270.83,752.833 1270.5,752.5C 1239.09,776.441 1216.59,807.108 1203,844.5C 1191.14,877.676 1188.14,911.676 1194,946.5C 1197.77,966.474 1202.77,986.14 1209,1005.5C 1214.92,1023.75 1216.92,1042.42 1215,1061.5C 1210.42,1075.34 1203.75,1088 1195,1099.5C 1175.87,1122.43 1158.2,1146.43 1142,1171.5C 1132.01,1188.13 1127.67,1206.13 1129,1225.5C 1098.43,1253.53 1062.26,1268.2 1020.5,1269.5C 1023.63,1282.22 1026.96,1294.89 1030.5,1307.5C 1012.67,1309.42 996.999,1316.25 983.5,1328C 973.902,1337.77 963.569,1346.6 952.5,1354.5C 941.594,1339.71 931.927,1324.04 923.5,1307.5C 929.263,1305.63 934.93,1303.47 940.5,1301C 953.986,1290.09 967.652,1279.43 981.5,1269C 988.628,1264.79 996.295,1262.29 1004.5,1261.5C 1009.17,1261.5 1013.83,1261.5 1018.5,1261.5C 1018.77,1259.9 1018.43,1258.57 1017.5,1257.5C 1015.18,1246.6 1013.51,1235.6 1012.5,1224.5C 999.679,1223.25 987.346,1225.09 975.5,1230C 967.837,1233.83 960.504,1238.16 953.5,1243C 944.372,1251.06 934.705,1258.4 924.5,1265C 918.141,1268.43 911.475,1269.93 904.5,1269.5C 896.948,1253.06 889.948,1236.4 883.5,1219.5C 900.791,1218.24 916.791,1213.07 931.5,1204C 946.207,1192.31 962.207,1182.65 979.5,1175C 988.56,1171.75 997.893,1170.25 1007.5,1170.5C 1007.5,1156.17 1007.5,1141.83 1007.5,1127.5C 986.945,1126.89 967.945,1132.06 950.5,1143C 936.024,1152.8 921.024,1161.8 905.5,1170C 893.637,1174.91 881.304,1176.74 868.5,1175.5C 863.697,1157.96 859.364,1140.29 855.5,1122.5C 879.16,1124.84 901.493,1120.34 922.5,1109C 938.843,1099.16 955.51,1089.83 972.5,1081C 985.866,1074.99 999.866,1072.16 1014.5,1072.5C 1016.57,1056.22 1019.9,1040.22 1024.5,1024.5C 1025.04,1024.44 1025.38,1024.11 1025.5,1023.5C 1020.01,1022.19 1014.68,1022.19 1009.5,1023.5C 989.877,1025.21 971.544,1031.04 954.5,1041C 934.7,1053.73 913.7,1064.07 891.5,1072C 876.973,1075.45 862.306,1076.28 847.5,1074.5C 845.806,1058.87 844.473,1043.2 843.5,1027.5C 870.379,1030.1 896.046,1025.6 920.5,1014C 941.586,1002.79 962.919,992.124 984.5,982C 1002.93,975.494 1021.93,972.661 1041.5,973.5C 1049.32,955.197 1057.65,937.197 1066.5,919.5C 1038.25,914.901 1010.91,918.068 984.5,929C 962.71,939.395 941.044,950.061 919.5,961C 895.586,971.607 870.586,975.607 844.5,973C 843.22,970.106 842.554,966.939 842.5,963.5C 844.485,929.634 848.152,895.967 853.5,862.5C 853.216,860.585 853.549,858.919 854.5,857.5C 856.118,854.829 856.785,851.829 856.5,848.5C 857.913,845.781 858.58,842.781 858.5,839.5C 860.416,835.837 861.416,831.837 861.5,827.5C 866.078,813.755 870.078,799.755 873.5,785.5C 875.642,782.2 876.975,778.533 877.5,774.5C 877.5,774.167 877.5,773.833 877.5,773.5C 879.213,772.365 879.88,770.698 879.5,768.5C 879.5,768.167 879.5,767.833 879.5,767.5C 881.213,766.365 881.88,764.698 881.5,762.5C 883.213,761.365 883.88,759.698 883.5,757.5C 883.557,756.391 883.89,755.391 884.5,754.5C 886.213,753.365 886.88,751.698 886.5,749.5C 888.834,747.824 889.834,745.491 889.5,742.5C 955.077,585.421 1064.41,469.588 1217.5,395C 1370.49,325.565 1527.82,313.898 1689.5,360C 1731.17,372.501 1771.17,389.001 1809.5,409.5 Z"/></g>
<g><path style="opacity:1" fill="#fdfefe" d="M 1498.5,372.5 C 1510.67,398.843 1522.33,425.509 1533.5,452.5C 1562.48,455.189 1591.48,457.689 1620.5,460C 1598.51,478.664 1577.17,497.997 1556.5,518C 1566.15,543.279 1575.98,568.446 1586,593.5C 1627.74,553.569 1677.58,531.403 1735.5,527C 1712.13,560.908 1693.96,597.408 1681,636.5C 1716.92,608.026 1757.76,592.693 1803.5,590.5C 1774.22,627.36 1749.72,667.36 1730,710.5C 1727.4,714.212 1723.9,715.378 1719.5,714C 1612.49,661.667 1500.82,648.667 1384.5,675C 1348.38,683.706 1313.72,696.373 1280.5,713C 1275.55,715.65 1271.38,714.816 1268,710.5C 1248.37,667.866 1224.2,628.199 1195.5,591.5C 1240.91,593.358 1281.41,608.358 1317,636.5C 1304.33,597.826 1286.33,561.826 1263,528.5C 1320.07,531.839 1369.74,553.506 1412,593.5C 1422.12,568.318 1431.95,542.985 1441.5,517.5C 1420.47,497.797 1399.13,478.464 1377.5,459.5C 1406.45,456.792 1435.45,454.792 1464.5,453.5C 1475.55,426.396 1486.88,399.396 1498.5,372.5 Z"/></g>
<g><path style="opacity:1" fill="#8db7a3" d="M 1809.5,409.5 C 1810.71,409.932 1811.71,410.599 1812.5,411.5C 1810.82,411.715 1809.82,411.048 1809.5,409.5 Z"/></g>
<g><path style="opacity:1" fill="#91baa6" d="M 1820.5,415.5 C 1821.71,415.932 1822.71,416.599 1823.5,417.5C 1821.82,417.715 1820.82,417.048 1820.5,415.5 Z"/></g>
<g><path style="opacity:1" fill="#93bca9" d="M 1827.5,419.5 C 1828.71,419.932 1829.71,420.599 1830.5,421.5C 1828.82,421.715 1827.82,421.048 1827.5,419.5 Z"/></g>
<g><path style="opacity:1" fill="#72a68c" d="M 1905.5,472.5 C 1907.75,473.124 1909.42,474.457 1910.5,476.5C 1908.21,475.864 1906.54,474.531 1905.5,472.5 Z"/></g>
<g><path style="opacity:0.859" fill="#acccbe" d="M 1940.5,501.5 C 1941.83,502.167 1942.83,503.167 1943.5,504.5C 1941.5,504.5 1940.5,503.5 1940.5,501.5 Z"/></g>
<g><path style="opacity:0.012" fill="#bdd7cb" d="M 1951.5,512.5 C 1954.43,513.757 1956.76,515.757 1958.5,518.5C 1955.57,517.243 1953.24,515.243 1951.5,512.5 Z"/></g>
<g><path style="opacity:0.91" fill="#a8caba" d="M 1960.5,520.5 C 1963.17,522.5 1965.5,524.833 1967.5,527.5C 1964.17,526.167 1961.83,523.833 1960.5,520.5 Z"/></g>
<g><path style="opacity:0.91" fill="#b1cfc1" d="M 1969.5,529.5 C 1973.23,532.231 1976.23,535.564 1978.5,539.5C 1974.77,536.769 1971.77,533.436 1969.5,529.5 Z"/></g>
<g><path style="opacity:1" fill="#93bcaa" d="M 1982.5,543.5 C 1985.57,545.569 1987.91,548.236 1989.5,551.5C 1986.43,549.431 1984.09,546.764 1982.5,543.5 Z"/></g>
<g><path style="opacity:0.929" fill="#a0c5b4" d="M 1993.5,555.5 C 1995.59,556.585 1996.92,558.251 1997.5,560.5C 1995.41,559.415 1994.08,557.749 1993.5,555.5 Z"/></g>
<g><path style="opacity:1" fill="#06663e" d="M 1498.5,561.5 C 1499.55,561.351 1500.55,561.517 1501.5,562C 1523.76,579.046 1545.92,596.212 1568,613.5C 1568.94,616.23 1567.94,617.563 1565,617.5C 1520.47,611.042 1475.97,610.875 1431.5,617C 1430.12,614.46 1430.79,612.46 1433.5,611C 1455.35,594.637 1477.02,578.137 1498.5,561.5 Z"/></g>
<g><path style="opacity:1" fill="#98bfae" d="M 1999.5,562.5 C 2001.59,563.585 2002.92,565.251 2003.5,567.5C 2001.41,566.415 2000.08,564.749 1999.5,562.5 Z"/></g>
<g><path style="opacity:0.851" fill="#9bc1b0" d="M 2003.5,567.5 C 2005.91,568.911 2007.58,570.911 2008.5,573.5C 2006.09,572.089 2004.42,570.089 2003.5,567.5 Z"/></g>
<g><path style="opacity:1" fill="#80b09b" d="M 2008.5,573.5 C 2010.59,574.585 2011.92,576.251 2012.5,578.5C 2010.41,577.415 2009.08,575.749 2008.5,573.5 Z"/></g>
<g><path style="opacity:0.859" fill="#90baa7" d="M 2012.5,578.5 C 2014.59,579.585 2015.92,581.251 2016.5,583.5C 2014.41,582.415 2013.08,580.749 2012.5,578.5 Z"/></g>
<g><path style="opacity:0.859" fill="#97bead" d="M 2016.5,583.5 C 2018.59,584.585 2019.92,586.251 2020.5,588.5C 2018.41,587.415 2017.08,585.749 2016.5,583.5 Z"/></g>
<g><path style="opacity:0.937" fill="#8ab7a3" d="M 2023.5,592.5 C 2025.26,593.262 2026.26,594.596 2026.5,596.5C 2024.74,595.738 2023.74,594.404 2023.5,592.5 Z"/></g>
<g><path style="opacity:1" fill="#87b4a0" d="M 2026.5,596.5 C 2028.26,597.262 2029.26,598.596 2029.5,600.5C 2027.74,599.738 2026.74,598.404 2026.5,596.5 Z"/></g>
<g><path style="opacity:0.859" fill="#a1c5b5" d="M 2032.5,604.5 C 2034.26,605.262 2035.26,606.596 2035.5,608.5C 2033.74,607.738 2032.74,606.404 2032.5,604.5 Z"/></g>
<g><path style="opacity:0.8" fill="#a1c6b7" d="M 2035.5,608.5 C 2036.91,608.973 2037.57,609.973 2037.5,611.5C 2036.09,611.027 2035.43,610.027 2035.5,608.5 Z"/></g>
<g><path style="opacity:0.859" fill="#8fbaa7" d="M 2037.5,611.5 C 2038.91,611.973 2039.57,612.973 2039.5,614.5C 2038.09,614.027 2037.43,613.027 2037.5,611.5 Z"/></g>
<g><path style="opacity:0.949" fill="#8ab7a4" d="M 2039.5,614.5 C 2041.26,615.262 2042.26,616.596 2042.5,618.5C 2040.74,617.738 2039.74,616.404 2039.5,614.5 Z"/></g>
<g><path style="opacity:0.725" fill="#abccbe" d="M 2042.5,618.5 C 2043.91,618.973 2044.57,619.973 2044.5,621.5C 2043.09,621.027 2042.43,620.027 2042.5,618.5 Z"/></g>
<g><path style="opacity:0.8" fill="#a1c6b7" d="M 2044.5,621.5 C 2045.91,621.973 2046.57,622.973 2046.5,624.5C 2045.09,624.027 2044.43,623.027 2044.5,621.5 Z"/></g>
<g><path style="opacity:0.769" fill="#99c1af" d="M 2046.5,624.5 C 2047.91,624.973 2048.57,625.973 2048.5,627.5C 2047.09,627.027 2046.43,626.027 2046.5,624.5 Z"/></g>
<g><path style="opacity:0.725" fill="#a4c8b8" d="M 2048.5,627.5 C 2049.91,627.973 2050.57,628.973 2050.5,630.5C 2049.09,630.027 2048.43,629.027 2048.5,627.5 Z"/></g>
<g><path style="opacity:0.655" fill="#adcdc0" d="M 2050.5,630.5 C 2051.91,630.973 2052.57,631.973 2052.5,633.5C 2051.09,633.027 2050.43,632.027 2050.5,630.5 Z"/></g>
<g><path style="opacity:0.655" fill="#b6d3c7" d="M 2052.5,633.5 C 2053.91,633.973 2054.57,634.973 2054.5,636.5C 2053.09,636.027 2052.43,635.027 2052.5,633.5 Z"/></g>
<g><path style="opacity:0.506" fill="#b8d3c8" d="M 2054.5,636.5 C 2055.91,636.973 2056.57,637.973 2056.5,639.5C 2055.09,639.027 2054.43,638.027 2054.5,636.5 Z"/></g>
<g><path style="opacity:0.725" fill="#a6c9ba" d="M 2057.5,641.5 C 2058.91,641.973 2059.57,642.973 2059.5,644.5C 2058.09,644.027 2057.43,643.027 2057.5,641.5 Z"/></g>
<g><path style="opacity:0.506" fill="#b9d5c9" d="M 2059.5,644.5 C 2060.91,644.973 2061.57,645.973 2061.5,647.5C 2060.09,647.027 2059.43,646.027 2059.5,644.5 Z"/></g>
<g><path style="opacity:0.58" fill="#adcdbf" d="M 2062.5,649.5 C 2063.91,649.973 2064.57,650.973 2064.5,652.5C 2063.09,652.027 2062.43,651.027 2062.5,649.5 Z"/></g>
<g><path style="opacity:1" fill="#fefefe" d="M 983.5,653.5 C 986.016,653.755 988.35,654.589 990.5,656C 1020.61,678.807 1041.45,708.307 1053,744.5C 1054.39,752.412 1056.56,760.078 1059.5,767.5C 1102.35,740.789 1148.35,733.289 1197.5,745C 1203.54,746.29 1209.21,748.456 1214.5,751.5C 1165.26,787.242 1123.26,830.076 1088.5,880C 1054.89,871.076 1021.89,873.076 989.5,886C 972.381,893.392 955.381,901.059 938.5,909C 919.938,917.746 900.438,922.579 880,923.5C 872.471,924.088 865.304,922.921 858.5,920C 897.646,880.185 929.812,835.352 955,785.5C 973.984,744.605 982.317,701.605 980,656.5C 981.145,655.364 982.312,654.364 983.5,653.5 Z"/></g>
<g><path style="opacity:1" fill="#fdfefe" d="M 2011.5,653.5 C 2014.1,653.549 2016.27,654.549 2018,656.5C 2015.69,713.938 2029.36,767.271 2059,816.5C 2082.09,853.805 2108.92,888.305 2139.5,920C 2132,922.868 2124.16,924.035 2116,923.5C 2098.1,922.519 2080.94,918.353 2064.5,911C 2046.5,903 2028.5,895 2010.5,887C 1977.89,873.059 1944.55,870.892 1910.5,880.5C 1894.63,859.781 1878.13,839.448 1861,819.5C 1837.39,794.04 1811.56,771.373 1783.5,751.5C 1788.79,748.456 1794.46,746.29 1800.5,745C 1836.09,736.193 1871.09,738.193 1905.5,751C 1917.5,756.004 1929.17,761.504 1940.5,767.5C 1948.75,719.646 1972.42,681.646 2011.5,653.5 Z"/></g>
<g><path style="opacity:0.506" fill="#b0cfc2" d="M 2065.5,654.5 C 2066.91,654.973 2067.57,655.973 2067.5,657.5C 2066.09,657.027 2065.43,656.027 2065.5,654.5 Z"/></g>
<g><path style="opacity:0.435" fill="#cde0d8" d="M 2068.5,659.5 C 2069.91,659.973 2070.57,660.973 2070.5,662.5C 2069.09,662.027 2068.43,661.027 2068.5,659.5 Z"/></g>
<g><path style="opacity:0.435" fill="#cbdfd7" d="M 2072.5,666.5 C 2073.91,666.973 2074.57,667.973 2074.5,669.5C 2073.09,669.027 2072.43,668.027 2072.5,666.5 Z"/></g>
<g><path style="opacity:0.435" fill="#cee1d9" d="M 2077.5,675.5 C 2078.91,675.973 2079.57,676.973 2079.5,678.5C 2078.09,678.027 2077.43,677.027 2077.5,675.5 Z"/></g>
<g><path style="opacity:1" fill="#fdfefe" d="M 1485.5,691.5 C 1524.79,689.314 1560.12,699.814 1591.5,723C 1607.79,736.463 1619.12,753.296 1625.5,773.5C 1625.57,775.266 1624.73,776.266 1623,776.5C 1599.13,766.971 1574.97,766.138 1550.5,774C 1539.7,778.154 1530.53,784.654 1523,793.5C 1516.41,819.407 1517.08,845.074 1525,870.5C 1528.56,871.684 1531.56,870.684 1534,867.5C 1537.25,861.992 1540.25,856.325 1543,850.5C 1546.25,845.777 1550.75,844.277 1556.5,846C 1569.99,852.832 1583.99,854.165 1598.5,850C 1603.38,847.744 1608.22,845.578 1613,843.5C 1623.09,846.628 1628.09,853.628 1628,864.5C 1627.78,901.843 1617.44,936.176 1597,967.5C 1580.53,993.972 1558.36,1014.14 1530.5,1028C 1502.29,1038.74 1475.63,1035.74 1450.5,1019C 1404.29,984.767 1377.45,938.933 1370,881.5C 1369.13,873.103 1369.46,864.77 1371,856.5C 1373.89,845.802 1380.72,841.969 1391.5,845C 1404.03,852.913 1417.36,854.58 1431.5,850C 1439.04,845.932 1447.04,844.599 1455.5,846C 1460.63,848.397 1465.63,851.064 1470.5,854C 1471.79,854.49 1473.13,854.657 1474.5,854.5C 1479.65,834.237 1479.81,813.904 1475,793.5C 1462.76,779.462 1447.26,771.295 1428.5,769C 1410.2,766.617 1392.53,768.784 1375.5,775.5C 1373.5,775.5 1372.5,774.5 1372.5,772.5C 1381.85,744.63 1399.52,723.796 1425.5,710C 1444.47,700.117 1464.47,693.95 1485.5,691.5 Z"/></g>
<g><path style="opacity:0.999" fill="#fdfefd" d="M 1334.5,1629.5 C 1317.57,1625.34 1300.57,1620.34 1283.5,1614.5C 1283.33,1606.16 1283.5,1597.83 1284,1589.5C 1287.21,1567.74 1293.87,1547.08 1304,1527.5C 1315,1506.17 1326,1484.83 1337,1463.5C 1339.33,1457.83 1341.67,1452.17 1344,1446.5C 1351.34,1428.75 1353.34,1410.42 1350,1391.5C 1345.11,1374.05 1337.77,1357.72 1328,1342.5C 1313.58,1321.34 1299.92,1299.67 1287,1277.5C 1275.36,1256.28 1270.36,1233.62 1272,1209.5C 1275.82,1190.7 1283.48,1173.7 1295,1158.5C 1310.82,1139.68 1325.49,1120.01 1339,1099.5C 1350.83,1079.02 1355.17,1057.02 1352,1033.5C 1349.72,1013.65 1344.38,994.653 1336,976.5C 1324.9,953.524 1315.56,929.857 1308,905.5C 1292.28,825.465 1316.12,759.965 1379.5,709C 1381.13,708.506 1382.8,708.34 1384.5,708.5C 1384.66,710.199 1384.49,711.866 1384,713.5C 1340.57,766.914 1326.9,827.248 1343,894.5C 1354.83,926.65 1367.83,958.317 1382,989.5C 1403.06,1040.75 1396.73,1088.08 1363,1131.5C 1347.79,1148.25 1334.79,1166.59 1324,1186.5C 1316.1,1204.26 1314.43,1222.59 1319,1241.5C 1323.69,1259.88 1331.36,1276.88 1342,1292.5C 1360.01,1317.16 1376.01,1343.16 1390,1370.5C 1401.36,1396.78 1402.36,1423.45 1393,1450.5C 1381.97,1478.55 1369.31,1505.89 1355,1532.5C 1348.83,1545.83 1343.5,1559.5 1339,1573.5C 1333.64,1591.85 1332.14,1610.51 1334.5,1629.5 Z"/></g>
<g><path style="opacity:0.999" fill="#fdfefd" d="M 1716.5,1614.5 C 1699.33,1620.03 1682.33,1625.03 1665.5,1629.5C 1666.52,1618.19 1666.69,1606.85 1666,1595.5C 1662.48,1574.94 1656.15,1555.27 1647,1536.5C 1633.57,1510.98 1621.24,1484.98 1610,1458.5C 1601.09,1436.82 1598.76,1414.49 1603,1391.5C 1608.23,1373.38 1615.89,1356.38 1626,1340.5C 1643.25,1316.56 1658.92,1291.56 1673,1265.5C 1688.92,1231.74 1686.59,1199.41 1666,1168.5C 1654.67,1153.83 1643.33,1139.17 1632,1124.5C 1618.72,1106.61 1610.39,1086.61 1607,1064.5C 1604.75,1036.77 1609.08,1010.1 1620,984.5C 1630.94,959.616 1641.61,934.616 1652,909.5C 1675.36,836.972 1663.03,771.305 1615,712.5C 1614.28,709.875 1615.28,708.208 1618,707.5C 1628.25,715.072 1637.91,723.406 1647,732.5C 1699.35,792.959 1711.02,860.626 1682,935.5C 1670.61,959.947 1660.61,984.947 1652,1010.5C 1642.47,1043.67 1646.47,1075.01 1664,1104.5C 1677.28,1122.78 1690.95,1140.78 1705,1158.5C 1710.75,1166.34 1715.75,1174.67 1720,1183.5C 1727.04,1199.1 1729.71,1215.43 1728,1232.5C 1725.12,1249.81 1719.45,1266.14 1711,1281.5C 1699.17,1301.17 1686.83,1320.51 1674,1339.5C 1668.41,1349.01 1663.08,1358.67 1658,1368.5C 1652.15,1381.41 1648.99,1394.91 1648.5,1409C 1649.26,1425.55 1653.09,1441.38 1660,1456.5C 1671.4,1479.62 1683.06,1502.62 1695,1525.5C 1701.16,1538.16 1706.5,1551.16 1711,1564.5C 1716.54,1580.78 1718.37,1597.45 1716.5,1614.5 Z"/></g>
<g><path style="opacity:1" fill="#95bca9" d="M 2097.5,714.5 C 2098.67,715.514 2099.34,716.847 2099.5,718.5C 2097.82,717.817 2097.16,716.483 2097.5,714.5 Z"/></g>
<g><path style="opacity:0.999" fill="#fdfdfd" d="M 1797.5,1579.5 C 1786.23,1585.64 1774.56,1590.97 1762.5,1595.5C 1759.86,1568.73 1752.03,1543.4 1739,1519.5C 1727.49,1499.15 1716.49,1478.48 1706,1457.5C 1702.44,1449.72 1699.44,1441.72 1697,1433.5C 1693.32,1420.74 1691.99,1407.74 1693,1394.5C 1696.66,1375.2 1703.66,1357.2 1714,1340.5C 1730,1316.5 1745,1291.83 1759,1266.5C 1769.19,1246.14 1772.19,1224.81 1768,1202.5C 1763.36,1187.55 1756.36,1173.88 1747,1161.5C 1733.18,1144.53 1719.85,1127.19 1707,1109.5C 1697.65,1095.79 1691.32,1080.79 1688,1064.5C 1685.52,1037.31 1689.19,1010.97 1699,985.5C 1706.59,966.396 1713.59,947.062 1720,927.5C 1729.75,893.853 1731.09,859.853 1724,825.5C 1714.41,787.98 1696.75,754.98 1671,726.5C 1670.33,725.833 1670.33,725.167 1671,724.5C 1677.43,728.295 1683.59,732.462 1689.5,737C 1753.13,797.672 1771.96,870.172 1746,954.5C 1740,971.833 1734,989.167 1728,1006.5C 1716.45,1038.9 1719.78,1069.57 1738,1098.5C 1752.09,1117.68 1766.42,1136.68 1781,1155.5C 1785.25,1161.66 1789.25,1168 1793,1174.5C 1810.21,1205.75 1810.87,1237.41 1795,1269.5C 1783.26,1292.65 1770.26,1314.99 1756,1336.5C 1747.12,1350.6 1740.12,1365.6 1735,1381.5C 1730.83,1402.67 1733.5,1423 1743,1442.5C 1754.81,1467.45 1767.14,1492.11 1780,1516.5C 1783.33,1524.5 1786.67,1532.5 1790,1540.5C 1794.89,1553.06 1797.39,1566.06 1797.5,1579.5 Z"/></g>
<g><path style="opacity:1" fill="#86b29d" d="M 2101.5,723.5 C 2102.93,724.78 2103.6,726.447 2103.5,728.5C 2101.79,727.365 2101.12,725.698 2101.5,723.5 Z"/></g>
<g><path style="opacity:0.999" fill="#fdfdfd" d="M 1237.5,1597.5 C 1226.06,1591.61 1214.39,1585.95 1202.5,1580.5C 1202.26,1574.43 1202.76,1568.43 1204,1562.5C 1207.27,1548.35 1211.94,1534.68 1218,1521.5C 1231.95,1493.93 1245.62,1466.26 1259,1438.5C 1267.72,1418.7 1269.39,1398.36 1264,1377.5C 1259.08,1364.32 1253.08,1351.65 1246,1339.5C 1229.88,1315.61 1215.55,1290.61 1203,1264.5C 1193.76,1243.09 1191.76,1221.09 1197,1198.5C 1201.91,1184.27 1208.58,1170.93 1217,1158.5C 1232.38,1138.78 1247.38,1118.78 1262,1098.5C 1277.98,1075.33 1282.65,1049.99 1276,1022.5C 1266.12,991.209 1256.46,959.876 1247,928.5C 1236.26,873.89 1245.92,823.224 1276,776.5C 1290.07,755.265 1307.9,737.932 1329.5,724.5C 1321.5,735.428 1313.34,746.761 1305,758.5C 1273.34,807.456 1264.01,860.456 1277,917.5C 1285.77,944.37 1295.1,971.036 1305,997.5C 1306.98,1004.09 1308.65,1010.76 1310,1017.5C 1317.9,1050.77 1312.23,1081.44 1293,1109.5C 1279.67,1126.83 1266.33,1144.17 1253,1161.5C 1249.33,1167.17 1245.67,1172.83 1242,1178.5C 1229.54,1199.58 1226.54,1221.91 1233,1245.5C 1238.86,1263.22 1246.86,1279.89 1257,1295.5C 1273.62,1318.38 1287.95,1342.72 1300,1368.5C 1308.55,1389.85 1309.55,1411.51 1303,1433.5C 1294.07,1458.35 1282.74,1482.02 1269,1504.5C 1261.45,1518.92 1254.45,1533.59 1248,1548.5C 1241.87,1564.33 1238.37,1580.66 1237.5,1597.5 Z"/></g>
<g><path style="opacity:1" fill="#93bba8" d="M 2107.5,737.5 C 2109.07,739.509 2110.07,741.843 2110.5,744.5C 2108.17,742.824 2107.17,740.491 2107.5,737.5 Z"/></g>
<g><path style="opacity:1" fill="#79aa92" d="M 889.5,742.5 C 889.834,745.491 888.834,747.824 886.5,749.5C 886.935,746.843 887.935,744.509 889.5,742.5 Z"/></g>
<g><path style="opacity:1" fill="#a2c5b5" d="M 2110.5,744.5 C 2111.54,745.93 2112.2,747.597 2112.5,749.5C 2110.79,748.365 2110.12,746.698 2110.5,744.5 Z"/></g>
<g><path style="opacity:1" fill="#88b5a0" d="M 886.5,749.5 C 886.88,751.698 886.213,753.365 884.5,754.5C 884.796,752.597 885.463,750.93 886.5,749.5 Z"/></g>
<g><path style="opacity:1" fill="#a1c5b5" d="M 2112.5,749.5 C 2113.54,750.93 2114.2,752.597 2114.5,754.5C 2112.79,753.365 2112.12,751.698 2112.5,749.5 Z"/></g>
<g><path style="opacity:1" fill="#fdfdfd" d="M 974.5,1389.5 C 891.82,1279.96 847.32,1156.63 841,1019.5C 838.679,966.5 842.846,914.166 853.5,862.5C 848.152,895.967 844.485,929.634 842.5,963.5C 842.554,966.939 843.22,970.106 844.5,973C 870.586,975.607 895.586,971.607 919.5,961C 941.044,950.061 962.71,939.395 984.5,929C 1010.91,918.068 1038.25,914.901 1066.5,919.5C 1057.65,937.197 1049.32,955.197 1041.5,973.5C 1021.93,972.661 1002.93,975.494 984.5,982C 962.919,992.124 941.586,1002.79 920.5,1014C 896.046,1025.6 870.379,1030.1 843.5,1027.5C 844.473,1043.2 845.806,1058.87 847.5,1074.5C 862.306,1076.28 876.973,1075.45 891.5,1072C 913.7,1064.07 934.7,1053.73 954.5,1041C 971.544,1031.04 989.877,1025.21 1009.5,1023.5C 1014.69,1023.18 1019.69,1023.51 1024.5,1024.5C 1019.9,1040.22 1016.57,1056.22 1014.5,1072.5C 999.866,1072.16 985.866,1074.99 972.5,1081C 955.51,1089.83 938.843,1099.16 922.5,1109C 901.493,1120.34 879.16,1124.84 855.5,1122.5C 859.364,1140.29 863.697,1157.96 868.5,1175.5C 881.304,1176.74 893.637,1174.91 905.5,1170C 921.024,1161.8 936.024,1152.8 950.5,1143C 967.945,1132.06 986.945,1126.89 1007.5,1127.5C 1007.5,1141.83 1007.5,1156.17 1007.5,1170.5C 997.893,1170.25 988.56,1171.75 979.5,1175C 962.207,1182.65 946.207,1192.31 931.5,1204C 916.791,1213.07 900.791,1218.24 883.5,1219.5C 889.948,1236.4 896.948,1253.06 904.5,1269.5C 911.475,1269.93 918.141,1268.43 924.5,1265C 934.705,1258.4 944.372,1251.06 953.5,1243C 960.504,1238.16 967.837,1233.83 975.5,1230C 987.346,1225.09 999.679,1223.25 1012.5,1224.5C 1013.51,1235.6 1015.18,1246.6 1017.5,1257.5C 1017.5,1258.5 1017.5,1259.5 1017.5,1260.5C 1012.97,1260.18 1008.63,1260.52 1004.5,1261.5C 996.295,1262.29 988.628,1264.79 981.5,1269C 967.652,1279.43 953.986,1290.09 940.5,1301C 934.93,1303.47 929.263,1305.63 923.5,1307.5C 931.927,1324.04 941.594,1339.71 952.5,1354.5C 963.569,1346.6 973.902,1337.77 983.5,1328C 996.999,1316.25 1012.67,1309.42 1030.5,1307.5C 1026.96,1294.89 1023.63,1282.22 1020.5,1269.5C 1062.26,1268.2 1098.43,1253.53 1129,1225.5C 1127.67,1206.13 1132.01,1188.13 1142,1171.5C 1158.2,1146.43 1175.87,1122.43 1195,1099.5C 1203.75,1088 1210.42,1075.34 1215,1061.5C 1216.92,1042.42 1214.92,1023.75 1209,1005.5C 1202.77,986.14 1197.77,966.474 1194,946.5C 1188.14,911.676 1191.14,877.676 1203,844.5C 1216.59,807.108 1239.09,776.441 1270.5,752.5C 1270.83,752.833 1271.17,753.167 1271.5,753.5C 1263.18,764.148 1255.34,775.148 1248,786.5C 1217.68,835.087 1208.35,887.421 1220,943.5C 1224.93,961.619 1230.26,979.619 1236,997.5C 1238.65,1008.1 1240.98,1018.76 1243,1029.5C 1246.69,1048.94 1244.36,1067.61 1236,1085.5C 1221.97,1109.57 1205.97,1132.24 1188,1153.5C 1182.67,1161.5 1177.33,1169.5 1172,1177.5C 1165.48,1188.72 1161.15,1200.72 1159,1213.5C 1158.22,1229.61 1160.55,1245.27 1166,1260.5C 1172.65,1278.13 1180.65,1295.13 1190,1311.5C 1190.67,1312.5 1190.67,1313.5 1190,1314.5C 1174.51,1329.32 1157.35,1341.82 1138.5,1352C 1117.58,1363.47 1095.25,1369.97 1071.5,1371.5C 1063.03,1373.34 1056.53,1370.67 1052,1363.5C 1048.53,1355.58 1045.36,1347.58 1042.5,1339.5C 1030.76,1339.69 1020.09,1343.19 1010.5,1350C 997.512,1361.32 984.846,1372.99 972.5,1385C 973.414,1386.41 974.08,1387.91 974.5,1389.5 Z"/></g>
<g><path style="opacity:1" fill="#fdfefd" d="M 2049.5,1354.5 C 2042.82,1364.53 2036.16,1374.53 2029.5,1384.5C 2027.4,1383.59 2025.4,1382.42 2023.5,1381C 2013.8,1370.97 2003.8,1361.3 1993.5,1352C 1988.49,1348.49 1983.16,1345.49 1977.5,1343C 1971.43,1340.58 1965.27,1339.75 1959,1340.5C 1955.72,1349 1952.06,1357.33 1948,1365.5C 1946.27,1367.62 1944.1,1369.12 1941.5,1370C 1926.94,1372.58 1912.61,1371.58 1898.5,1367C 1864.46,1356.16 1835.13,1338 1810.5,1312.5C 1820.62,1294.92 1829.12,1276.58 1836,1257.5C 1841.18,1242.58 1843.18,1227.24 1842,1211.5C 1836.65,1190.47 1827.32,1171.47 1814,1154.5C 1800.28,1137.12 1786.95,1119.45 1774,1101.5C 1766.47,1089.77 1761.13,1077.1 1758,1063.5C 1757.23,1050.47 1757.56,1037.47 1759,1024.5C 1765.4,997.579 1772.73,970.912 1781,944.5C 1788.83,910.987 1788.16,877.654 1779,844.5C 1768,810.317 1751.16,779.483 1728.5,752C 1729.17,751.333 1729.83,751.333 1730.5,752C 1735.32,756.24 1740.32,760.24 1745.5,764C 1798.54,816.939 1818.7,880.439 1806,954.5C 1800.65,975.887 1794.99,997.22 1789,1018.5C 1780.61,1045.85 1784.94,1070.85 1802,1093.5C 1815.67,1111.17 1829.33,1128.83 1843,1146.5C 1851.93,1158.68 1859.59,1171.68 1866,1185.5C 1870.87,1198.36 1872.87,1211.7 1872,1225.5C 1902.78,1253.13 1938.94,1267.96 1980.5,1270C 1977.1,1282.45 1973.76,1294.95 1970.5,1307.5C 1981.85,1308.89 1992.51,1312.39 2002.5,1318C 2015.24,1327.05 2027.24,1337.05 2038.5,1348C 2041.89,1350.69 2045.56,1352.86 2049.5,1354.5 Z"/></g>
<g><path style="opacity:1" fill="#86b39d" d="M 2114.5,755.5 C 2116.07,757.509 2117.07,759.843 2117.5,762.5C 2115.17,760.824 2114.17,758.491 2114.5,755.5 Z"/></g>
<g><path style="opacity:1" fill="#8db8a4" d="M 883.5,757.5 C 883.88,759.698 883.213,761.365 881.5,762.5C 881.796,760.597 882.463,758.93 883.5,757.5 Z"/></g>
<g><path style="opacity:1" fill="#a7c9ba" d="M 881.5,762.5 C 881.88,764.698 881.213,766.365 879.5,767.5C 879.796,765.597 880.463,763.93 881.5,762.5 Z"/></g>
<g><path style="opacity:1" fill="#abcbbd" d="M 2117.5,762.5 C 2118.87,764.936 2119.87,767.603 2120.5,770.5C 2118.35,768.383 2117.35,765.716 2117.5,762.5 Z"/></g>
<g><path style="opacity:1" fill="#91bba9" d="M 879.5,768.5 C 879.88,770.698 879.213,772.365 877.5,773.5C 877.796,771.597 878.463,769.93 879.5,768.5 Z"/></g>
<g><path style="opacity:1" fill="#91bba7" d="M 2120.5,771.5 C 2121.54,772.93 2122.2,774.597 2122.5,776.5C 2120.79,775.365 2120.12,773.698 2120.5,771.5 Z"/></g>
<g><path style="opacity:0.949" fill="#afcdc0" d="M 877.5,774.5 C 876.975,778.533 875.642,782.2 873.5,785.5C 874.065,781.463 875.399,777.797 877.5,774.5 Z"/></g>
<g><path style="opacity:0.949" fill="#a0c4b4" d="M 2122.5,777.5 C 2124.47,780.084 2125.47,783.084 2125.5,786.5C 2123.69,783.855 2122.69,780.855 2122.5,777.5 Z"/></g>
<g><path style="opacity:1" fill="#aacabc" d="M 873.5,785.5 C 870.078,799.755 866.078,813.755 861.5,827.5C 864.517,813.128 868.517,799.128 873.5,785.5 Z"/></g>
<g><path style="opacity:1" fill="#fbfcfc" d="M 1388.5,789.5 C 1406.94,787.194 1423.94,791.027 1439.5,801C 1442,803.5 1444.5,806 1447,808.5C 1448.91,811.206 1449.74,814.206 1449.5,817.5C 1441.32,815.083 1432.99,813.249 1424.5,812C 1415.83,811.333 1407.17,811.333 1398.5,812C 1392.44,813.531 1387.1,816.364 1382.5,820.5C 1376.14,814.924 1373.64,807.924 1375,799.5C 1378.05,794.073 1382.55,790.739 1388.5,789.5 Z"/></g>
<g><path style="opacity:1" fill="#fbfcfc" d="M 1585.5,789.5 C 1594.99,788.895 1604.33,789.729 1613.5,792C 1624.3,797.633 1626.46,805.8 1620,816.5C 1618.67,817.833 1617.33,819.167 1616,820.5C 1607.69,813.498 1598.02,810.165 1587,810.5C 1575.61,811.412 1564.44,813.412 1553.5,816.5C 1553.33,812.818 1553.5,809.152 1554,805.5C 1563.15,797.343 1573.65,792.01 1585.5,789.5 Z"/></g>
<g><path style="opacity:1" fill="#a0c4b4" d="M 2125.5,786.5 C 2129.15,794.775 2131.81,803.442 2133.5,812.5C 2130.26,804.103 2127.59,795.437 2125.5,786.5 Z"/></g>
<g><path style="opacity:1" fill="#acccbe" d="M 2133.5,812.5 C 2135.26,815.854 2136.26,819.521 2136.5,823.5C 2134.74,820.146 2133.74,816.479 2133.5,812.5 Z"/></g>
<g><path style="opacity:1" fill="#cadfd6" d="M 861.5,827.5 C 861.416,831.837 860.416,835.837 858.5,839.5C 858.898,835.239 859.898,831.239 861.5,827.5 Z"/></g>
<g><path style="opacity:0.481" fill="#e6f0ec" d="M 858.5,839.5 C 858.58,842.781 857.913,845.781 856.5,848.5C 856.42,845.219 857.087,842.219 858.5,839.5 Z"/></g>
<g><path style="opacity:0.851" fill="#b1cfc2" d="M 2142.5,848.5 C 2143.91,851.219 2144.58,854.219 2144.5,857.5C 2143.09,854.781 2142.42,851.781 2142.5,848.5 Z"/></g>
<g><path style="opacity:0.555" fill="#eef4f1" d="M 856.5,848.5 C 856.785,851.829 856.118,854.829 854.5,857.5C 854.42,854.219 855.087,851.219 856.5,848.5 Z"/></g>
<g><path style="opacity:1" fill="#06663e" d="M 1479.5,900.5 C 1485.85,900.432 1492.02,901.432 1498,903.5C 1501.95,903.22 1505.79,902.387 1509.5,901C 1516.29,900.039 1522.62,901.372 1528.5,905C 1531.93,907.367 1532.27,910.034 1529.5,913C 1523.54,914.148 1517.87,916.148 1512.5,919C 1505.65,921.245 1498.65,921.912 1491.5,921C 1483.69,918.005 1475.85,915.172 1468,912.5C 1466.81,910.956 1466.48,909.289 1467,907.5C 1470.86,904.502 1475.03,902.169 1479.5,900.5 Z"/></g>
<g><path style="opacity:0.998" fill="#fdfefd" d="M 2157.5,963.5 C 2158.28,987.852 2158.61,1012.02 2158.5,1036C 2157.96,1036.72 2157.29,1037.22 2156.5,1037.5C 2156.5,1034.17 2156.5,1030.83 2156.5,1027.5C 2128.48,1030.33 2101.81,1025.5 2076.5,1013C 2057.09,1001.96 2037.09,991.961 2016.5,983C 1997.75,976.405 1978.41,973.238 1958.5,973.5C 1950.68,955.197 1942.35,937.197 1933.5,919.5C 1964.85,915.37 1994.85,919.87 2023.5,933C 2039.99,941.078 2056.32,949.411 2072.5,958C 2099.31,971.62 2127.64,976.786 2157.5,973.5C 2157.5,970.167 2157.5,966.833 2157.5,963.5 Z"/></g>
<g><path style="opacity:0.949" fill="#96bead" d="M 2152.5,905.5 C 2153.81,910.616 2154.47,915.949 2154.5,921.5C 2152.92,916.417 2152.25,911.084 2152.5,905.5 Z"/></g>
<g><path style="opacity:1" fill="#05653e" d="M 1450.5,943.5 C 1482.32,950.11 1514.15,950.11 1546,943.5C 1548.17,944.333 1549.67,945.833 1550.5,948C 1542.16,957.335 1533.5,966.335 1524.5,975C 1505.45,987.106 1487.11,986.106 1469.5,972C 1462.14,963.644 1454.48,955.644 1446.5,948C 1448.04,946.629 1449.37,945.129 1450.5,943.5 Z"/></g>
<g><path style="opacity:1" fill="#6ea690" d="M 1009.5,1023.5 C 1014.68,1022.19 1020.01,1022.19 1025.5,1023.5C 1025.38,1024.11 1025.04,1024.44 1024.5,1024.5C 1019.69,1023.51 1014.69,1023.18 1009.5,1023.5 Z"/></g>
<g><path style="opacity:1" fill="#73a994" d="M 1985.5,1023.5 C 1981.99,1022.95 1978.99,1023.61 1976.5,1025.5C 1975.6,1024.79 1975.26,1023.79 1975.5,1022.5C 1979.04,1022.19 1982.38,1022.52 1985.5,1023.5 Z"/></g>
<g><path style="opacity:0.998" fill="#fdfefd" d="M 1985.5,1023.5 C 2007.62,1024.71 2028.29,1030.87 2047.5,1042C 2062.51,1050.84 2077.85,1059.17 2093.5,1067C 2112.75,1075.25 2132.75,1077.75 2153.5,1074.5C 2151.48,1090.61 2148.81,1106.61 2145.5,1122.5C 2122.16,1125.47 2100.16,1121.3 2079.5,1110C 2063.16,1100.16 2046.49,1090.83 2029.5,1082C 2015.89,1075.62 2001.56,1072.45 1986.5,1072.5C 1984.19,1056.61 1980.86,1040.95 1976.5,1025.5C 1978.99,1023.61 1981.99,1022.95 1985.5,1023.5 Z"/></g>
<g><path style="opacity:0.416" fill="#78ab93" d="M 2155.5,1050.5 C 2155.22,1053.78 2155.55,1056.94 2156.5,1060C 2155.91,1060.46 2155.24,1060.63 2154.5,1060.5C 2154.19,1056.96 2154.52,1053.62 2155.5,1050.5 Z"/></g>
<g><path style="opacity:0.999" fill="#fefefe" d="M 1617.5,1640.5 C 1599.57,1642.85 1581.74,1645.51 1564,1648.5C 1557.55,1648.22 1551.22,1648.22 1545,1648.5C 1539.97,1649.88 1534.97,1650.21 1530,1649.5C 1527.41,1649.38 1525.08,1650.04 1523,1651.5C 1507.5,1650.29 1491.83,1650.29 1476,1651.5C 1472.15,1649.33 1468.15,1649 1464,1650.5C 1455.59,1649.17 1447.09,1648.17 1438.5,1647.5C 1437.23,1647.57 1436.06,1647.9 1435,1648.5C 1427.15,1647.48 1419.15,1646.14 1411,1644.5C 1409.18,1645.48 1407.68,1645.32 1406.5,1644C 1398.51,1642.72 1390.51,1641.56 1382.5,1640.5C 1380.83,1627.22 1380.33,1613.88 1381,1600.5C 1384.11,1575.04 1391.11,1550.71 1402,1527.5C 1413.55,1504.41 1424.55,1481.08 1435,1457.5C 1438.27,1448.68 1440.94,1439.68 1443,1430.5C 1445.52,1416.66 1444.85,1402.99 1441,1389.5C 1437.1,1377.7 1432.1,1366.36 1426,1355.5C 1410.73,1331.23 1395.06,1307.23 1379,1283.5C 1373.53,1274.23 1368.87,1264.56 1365,1254.5C 1354.24,1225.3 1357.24,1197.63 1374,1171.5C 1388.05,1153.11 1401.72,1134.45 1415,1115.5C 1422.27,1102.02 1426.94,1087.68 1429,1072.5C 1432.63,1064.44 1438.8,1061.27 1447.5,1063C 1459.06,1066.41 1470.73,1069.41 1482.5,1072C 1497.25,1073.05 1511.92,1072.38 1526.5,1070C 1536.12,1066.64 1545.95,1064.14 1556,1062.5C 1561.33,1062.33 1565.66,1064.33 1569,1068.5C 1573.15,1092.46 1582.48,1114.13 1597,1133.5C 1608.1,1146.6 1618.43,1160.27 1628,1174.5C 1639.83,1193.31 1643.83,1213.65 1640,1235.5C 1635.49,1255.7 1627.49,1274.36 1616,1291.5C 1601.17,1313.16 1586.84,1335.16 1573,1357.5C 1567.84,1366.81 1563.51,1376.48 1560,1386.5C 1553.28,1409.57 1554.62,1432.24 1564,1454.5C 1574.51,1479.19 1585.85,1503.53 1598,1527.5C 1603.79,1540.87 1608.79,1554.54 1613,1568.5C 1619.59,1592.23 1621.09,1616.23 1617.5,1640.5 Z"/></g>
<g><path style="opacity:0.997" fill="#fdfefd" d="M 1993.5,1127.5 C 2007.27,1127.62 2020.6,1130.12 2033.5,1135C 2051.28,1143.8 2068.28,1153.8 2084.5,1165C 2099.31,1173.87 2115.31,1177.37 2132.5,1175.5C 2128.38,1190.2 2123.38,1204.86 2117.5,1219.5C 2106.91,1219.21 2096.58,1217.05 2086.5,1213C 2071.49,1205.84 2057.49,1197.17 2044.5,1187C 2031.18,1177.95 2016.51,1172.78 2000.5,1171.5C 1998.39,1170.53 1996.06,1170.2 1993.5,1170.5C 1993.5,1156.17 1993.5,1141.83 1993.5,1127.5 Z"/></g>
<g><path style="opacity:0.533" fill="#85b4a0" d="M 2141.5,1140.5 C 2142.83,1141.5 2142.83,1142.5 2141.5,1143.5C 2141.17,1143.5 2140.83,1143.5 2140.5,1143.5C 2140.26,1142.21 2140.6,1141.21 2141.5,1140.5 Z"/></g>
<g><path style="opacity:0.012" fill="#006c34" d="M 2141.5,1143.5 C 2142.83,1144.17 2142.83,1144.17 2141.5,1143.5 Z"/></g>
<g><path style="opacity:0.012" fill="#f8fbf8" d="M 2139.5,1151.5 C 2140.83,1152.17 2140.83,1152.17 2139.5,1151.5 Z"/></g>
<g><path style="opacity:1" fill="#488f72" d="M 1993.5,1127.5 C 1993.5,1141.83 1993.5,1156.17 1993.5,1170.5C 1996.06,1170.2 1998.39,1170.53 2000.5,1171.5C 1997.83,1171.5 1995.17,1171.5 1992.5,1171.5C 1992.17,1156.66 1992.5,1141.99 1993.5,1127.5 Z"/></g>
<g><path style="opacity:0.176" fill="#b5d1c1" d="M 2116.5,1222.5 C 2117.05,1224.4 2116.38,1226.07 2114.5,1227.5C 2114.4,1225.45 2115.07,1223.78 2116.5,1222.5 Z"/></g>
<g><path style="opacity:0.996" fill="#fcfdfd" d="M 2096.5,1270.5 C 2090.54,1283.41 2084.54,1295.74 2078.5,1307.5C 2078.17,1307.5 2077.83,1307.5 2077.5,1307.5C 2074.68,1306.49 2071.68,1305.66 2068.5,1305C 2054.51,1298.35 2042.17,1289.35 2031.5,1278C 2017.46,1265.82 2001.13,1260.32 1982.5,1261.5C 1984.98,1249.25 1986.98,1236.92 1988.5,1224.5C 2009.69,1223.4 2028.69,1229.23 2045.5,1242C 2054.88,1249.72 2064.55,1257.05 2074.5,1264C 2081.41,1267.73 2088.74,1269.89 2096.5,1270.5 Z"/></g>
<g><path style="opacity:0.041" fill="#cde0d8" d="M 2114.5,1227.5 C 2114.41,1228.5 2114.75,1229.33 2115.5,1230C 2113.1,1233.31 2111.1,1236.81 2109.5,1240.5C 2110.37,1235.78 2112.04,1231.44 2114.5,1227.5 Z"/></g>
<g><path style="opacity:0.435" fill="#cee1d9" d="M 2108.5,1242.5 C 2109.05,1244.4 2108.38,1246.07 2106.5,1247.5C 2106.4,1245.45 2107.07,1243.78 2108.5,1242.5 Z"/></g>
<g><path style="opacity:0.518" fill="#d4e4dd" d="M 2106.5,1247.5 C 2106.6,1249.55 2105.93,1251.22 2104.5,1252.5C 2104.4,1250.45 2105.07,1248.78 2106.5,1247.5 Z"/></g>
<g><path style="opacity:1" fill="#7baf9a" d="M 1017.5,1257.5 C 1018.43,1258.57 1018.77,1259.9 1018.5,1261.5C 1013.83,1261.5 1009.17,1261.5 1004.5,1261.5C 1008.63,1260.52 1012.97,1260.18 1017.5,1260.5C 1017.5,1259.5 1017.5,1258.5 1017.5,1257.5 Z"/></g>
<g><path style="opacity:0.012" fill="#c9ddd2" d="M 2102.5,1256.5 C 2102.83,1259.49 2101.83,1261.82 2099.5,1263.5C 2099.93,1260.84 2100.93,1258.51 2102.5,1256.5 Z"/></g>
<g><path style="opacity:0.506" fill="#afcdbe" d="M 2099.5,1263.5 C 2099.29,1266.24 2098.29,1268.57 2096.5,1270.5C 2096.71,1267.76 2097.71,1265.43 2099.5,1263.5 Z"/></g>
<g><path style="opacity:0.071" fill="#aac9b5" d="M 2077.5,1307.5 C 2077.83,1307.5 2078.17,1307.5 2078.5,1307.5C 2078.94,1307.43 2079.27,1307.6 2079.5,1308C 2078.05,1309.1 2076.72,1310.27 2075.5,1311.5C 2075.66,1309.85 2076.33,1308.51 2077.5,1307.5 Z"/></g>
<g><path style="opacity:0.041" fill="#e1ede7" d="M 2062.5,1334.5 C 2062.67,1335.49 2062.34,1336.16 2061.5,1336.5C 2060.56,1335.67 2060.89,1335.01 2062.5,1334.5 Z"/></g>
<g><path style="opacity:0.997" fill="#fcfdfc" d="M 1162.5,1558.5 C 1153.17,1552.5 1143.83,1546.5 1134.5,1540.5C 1138.2,1526.39 1143.7,1512.73 1151,1499.5C 1164.51,1479.15 1178.51,1459.15 1193,1439.5C 1198.18,1431.15 1202.84,1422.49 1207,1413.5C 1214.88,1393.6 1216.54,1373.26 1212,1352.5C 1219.52,1364.21 1224.85,1376.88 1228,1390.5C 1229.75,1412.91 1225.09,1433.91 1214,1453.5C 1203.58,1471.33 1192.92,1489 1182,1506.5C 1172.79,1522.97 1166.29,1540.31 1162.5,1558.5 Z"/></g>
<g><path style="opacity:0.997" fill="#fcfdfd" d="M 1863.5,1541.5 C 1854.64,1547.1 1845.64,1552.43 1836.5,1557.5C 1834.87,1544.96 1831.37,1532.96 1826,1521.5C 1814.84,1501.17 1803.17,1481.17 1791,1461.5C 1787.67,1454.83 1784.33,1448.17 1781,1441.5C 1767.31,1410 1769.98,1380 1789,1351.5C 1787.01,1359.29 1785.85,1367.29 1785.5,1375.5C 1786.34,1396.53 1792.51,1415.86 1804,1433.5C 1814.28,1448.78 1824.95,1463.78 1836,1478.5C 1841.92,1487.33 1847.58,1496.33 1853,1505.5C 1859.5,1516.81 1863,1528.81 1863.5,1541.5 Z"/></g>
<g><path style="opacity:0.994" fill="#fbfdfc" d="M 1041.5,1464.5 C 1038.25,1462.6 1035.25,1460.26 1032.5,1457.5C 1022.42,1446.76 1012.75,1435.76 1003.5,1424.5C 1004.12,1424.61 1004.62,1424.94 1005,1425.5C 1009.67,1420.17 1014.33,1414.83 1019,1409.5C 1029.81,1396.44 1043.14,1387.11 1059,1381.5C 1059.83,1381.83 1060.67,1382.17 1061.5,1382.5C 1065.83,1390.5 1070.17,1398.5 1074.5,1406.5C 1069.26,1408.52 1064.26,1411.02 1059.5,1414C 1047.65,1423.85 1037.15,1435.02 1028,1447.5C 1027.33,1448.5 1027.33,1449.5 1028,1450.5C 1032.7,1455.04 1037.2,1459.7 1041.5,1464.5 Z"/></g>
<g><path style="opacity:0.994" fill="#fcfdfd" d="M 1994.5,1426.5 C 1988.15,1434.18 1981.48,1441.52 1974.5,1448.5C 1965.78,1438.61 1956.78,1428.78 1947.5,1419C 1941.06,1413.45 1933.73,1409.45 1925.5,1407C 1930.4,1399.09 1934.9,1390.92 1939,1382.5C 1941.44,1381.71 1943.94,1381.88 1946.5,1383C 1966.81,1392.81 1982.81,1407.31 1994.5,1426.5 Z"/></g>
<g><path style="opacity:0.012" fill="#ebf2ef" d="M 977.5,1393.5 C 978.5,1393.83 979.167,1394.5 979.5,1395.5C 978.167,1395.5 977.5,1394.83 977.5,1393.5 Z"/></g>
<g><path style="opacity:0.071" fill="#cde1d8" d="M 979.5,1395.5 C 980.906,1395.97 981.573,1396.97 981.5,1398.5C 980.094,1398.03 979.427,1397.03 979.5,1395.5 Z"/></g>
<g><path style="opacity:0.071" fill="#cfe2da" d="M 983.5,1400.5 C 984.906,1400.97 985.573,1401.97 985.5,1403.5C 984.094,1403.03 983.427,1402.03 983.5,1400.5 Z"/></g>
<g><path style="opacity:0.071" fill="#bcd5c6" d="M 987.5,1405.5 C 988.974,1406.44 989.974,1407.77 990.5,1409.5C 988.554,1408.97 987.554,1407.63 987.5,1405.5 Z"/></g>
<g><path style="opacity:0.024" fill="#d7e6e0" d="M 994.5,1414.5 C 993.167,1413.83 992.167,1412.83 991.5,1411.5C 991.435,1411.06 991.601,1410.73 992,1410.5C 993.481,1411.47 994.315,1412.8 994.5,1414.5 Z"/></g>
<g><path style="opacity:0.024" fill="#d4e4dd" d="M 996.5,1416.5 C 998.587,1417.58 999.92,1419.25 1000.5,1421.5C 998.413,1420.42 997.08,1418.75 996.5,1416.5 Z"/></g>
<g><path style="opacity:0.012" fill="#ebf3ef" d="M 1000.5,1421.5 C 1001.83,1422.17 1002.83,1423.17 1003.5,1424.5C 1001.5,1424.5 1000.5,1423.5 1000.5,1421.5 Z"/></g>
<g><path style="opacity:0.992" fill="#fbfdfc" d="M 1088.5,1506.5 C 1088.17,1506.5 1087.83,1506.5 1087.5,1506.5C 1079.15,1498.82 1070.49,1491.49 1061.5,1484.5C 1061.56,1483.96 1061.89,1483.62 1062.5,1483.5C 1063.62,1484.83 1064.95,1485.33 1066.5,1485C 1075.03,1470.8 1086.03,1458.8 1099.5,1449C 1100.5,1448.33 1101.5,1448.33 1102.5,1449C 1107.59,1455.85 1112.93,1462.52 1118.5,1469C 1105.01,1478.89 1095.01,1491.39 1088.5,1506.5 Z"/></g>
<g><path style="opacity:0.991" fill="#fcfdfd" d="M 1935.5,1486.5 C 1927.9,1492.09 1920.57,1498.09 1913.5,1504.5C 1905.17,1491.07 1894.84,1479.23 1882.5,1469C 1887.88,1461.74 1893.38,1454.58 1899,1447.5C 1913.49,1458.48 1925.65,1471.48 1935.5,1486.5 Z"/></g>
<g><path style="opacity:1" fill="#afcebf" d="M 1047.5,1470.5 C 1051.57,1473.06 1055.24,1476.23 1058.5,1480C 1057.91,1480.46 1057.24,1480.63 1056.5,1480.5C 1053.47,1477.14 1050.47,1473.81 1047.5,1470.5 Z"/></g>
<g><path style="opacity:0.012" fill="#f8fbf8" d="M 1087.5,1506.5 C 1086.83,1507.17 1086.83,1507.17 1087.5,1506.5 Z"/></g>
<g><path style="opacity:0.859" fill="#b8d3c7" d="M 1088.5,1506.5 C 1090.75,1507.08 1092.42,1508.41 1093.5,1510.5C 1091.25,1509.92 1089.58,1508.59 1088.5,1506.5 Z"/></g>
<g><path style="opacity:0.012" fill="#a0c3ae" d="M 1095.5,1511.5 C 1096.5,1511.83 1097.17,1512.5 1097.5,1513.5C 1095.01,1513.87 1094.34,1513.2 1095.5,1511.5 Z"/></g>
<g><path style="opacity:0.416" fill="#80af96" d="M 1098.5,1515.5 C 1098.9,1514.47 1099.56,1514.31 1100.5,1515C 1102.09,1515.95 1103.43,1517.12 1104.5,1518.5C 1102.06,1518.25 1100.06,1517.25 1098.5,1515.5 Z"/></g>
<g><path style="opacity:0.012" fill="#006c34" d="M 1113.5,1526.5 C 1112.83,1527.17 1112.83,1527.17 1113.5,1526.5 Z"/></g>
<g><path style="opacity:0.898" fill="#00643b" d="M 1863.5,1593.5 C 1882.83,1593.5 1902.17,1593.5 1921.5,1593.5C 1921.5,1597.17 1921.5,1600.83 1921.5,1604.5C 1913.53,1604.23 1905.86,1603.9 1898.5,1603.5C 1897.5,1624.49 1897.17,1645.49 1897.5,1666.5C 1893.83,1666.5 1890.17,1666.5 1886.5,1666.5C 1886.5,1645.5 1886.5,1624.5 1886.5,1603.5C 1878.83,1603.5 1871.17,1603.5 1863.5,1603.5C 1863.5,1600.17 1863.5,1596.83 1863.5,1593.5 Z"/></g>
<g><path style="opacity:0.919" fill="#00643c" d="M 1930.5,1593.5 C 1936.21,1593.17 1941.87,1593.5 1947.5,1594.5C 1954.19,1612.4 1961.35,1630.07 1969,1647.5C 1976.33,1629.66 1983.17,1611.66 1989.5,1593.5C 1995.17,1593.5 2000.83,1593.5 2006.5,1593.5C 2006.5,1617.83 2006.5,1642.17 2006.5,1666.5C 2002.83,1666.5 1999.17,1666.5 1995.5,1666.5C 1995.67,1647.16 1995.5,1627.83 1995,1608.5C 1987.84,1627.06 1980.34,1645.89 1972.5,1665C 1972.83,1665.33 1973.17,1665.67 1973.5,1666C 1970.5,1666.67 1967.5,1666.67 1964.5,1666C 1957,1647.52 1949.5,1629.02 1942,1610.5C 1941.5,1629.16 1941.33,1647.83 1941.5,1666.5C 1937.83,1666.5 1934.17,1666.5 1930.5,1666.5C 1930.5,1642.17 1930.5,1617.83 1930.5,1593.5 Z"/></g>
</svg>
